<svg id="sunflower" xmlns="http://www.w3.org/2000/svg" width="64" height="64" viewBox="0 0 64 64">
  <path id="Path_1" data-name="Path 1" d="M115.16,304.449c-2.159,5.665-.132,11.982-.044,12.248l.524,1.595,1.642-.344c.275-.057,6.758-1.461,10.585-6.163l1.639-16.776Z" transform="translate(-99.898 -258.132)" fill="#fdbf00"/>
  <path id="Path_2" data-name="Path 2" d="M11.873,197.318c-5.984.963-10.567,5.876-10.754,6.085L0,204.653,1.119,205.9c.187.209,4.77,5.122,10.754,6.085l12.237-7.335Z" transform="translate(0 -172.653)" fill="#fdbf00"/>
  <path id="Path_3" data-name="Path 3" d="M117.282,31.066l-1.642-.344-.524,1.595c-.088.265-2.115,6.583.044,12.248l10.6,5.685,2.109-13.021C124.041,32.527,117.557,31.123,117.282,31.066Z" transform="translate(-99.898 -26.882)" fill="#fdbf00"/>
  <path id="Path_4" data-name="Path 4" d="M47.347,264.186a15.718,15.718,0,0,0-8.454,1.844c-6.037,3.485-7.758,11.4-7.828,11.735l-.344,1.642,1.595.524a22.531,22.531,0,0,0,6.423.947,15.276,15.276,0,0,0,7.654-1.859,15.446,15.446,0,0,0,5.832-6.418Z" transform="translate(-26.881 -231.15)" fill="#ffda2d"/>
  <path id="Path_5" data-name="Path 5" d="M46.394,116.034c-6.039-3.484-13.751-1.02-14.077-.912l-1.595.524.344,1.643c.07.335,1.791,8.251,7.828,11.735a15.7,15.7,0,0,0,8.516,1.84l4.819-8.4A15.432,15.432,0,0,0,46.394,116.034Z" transform="translate(-26.882 -99.904)" fill="#ffda2d"/>
  <path id="Path_6" data-name="Path 6" d="M289.521,32.316,289,30.721l-1.642.344c-.275.057-6.758,1.461-10.585,6.163L275.131,54l14.346-9.441C291.636,38.9,289.609,32.581,289.521,32.316Z" transform="translate(-240.74 -26.881)" fill="#ff9100"/>
  <path id="Path_7" data-name="Path 7" d="M342.111,203.4c-.187-.209-4.77-5.121-10.754-6.085l-12.237,7.335,12.237,7.335c5.984-.963,10.567-5.876,10.754-6.085l1.119-1.251Z" transform="translate(-279.23 -172.653)" fill="#ff9100"/>
  <path id="Path_8" data-name="Path 8" d="M300.949,330.738l-10.6-5.685-2.109,13.021c3.827,4.7,10.311,6.107,10.585,6.163l1.643.344.524-1.595C301.08,342.721,303.107,336.4,300.949,330.738Z" transform="translate(-252.211 -284.421)" fill="#ff9100"/>
  <path id="Path_9" data-name="Path 9" d="M329.157,115.117c-.328-.108-8.042-2.575-14.077.912a15.447,15.447,0,0,0-5.832,6.418l4.878,8.416a15.881,15.881,0,0,0,8.454-1.844c6.037-3.485,7.758-11.4,7.828-11.735l.344-1.643Z" transform="translate(-270.592 -99.898)" fill="#fdbf00"/>
  <path id="Path_10" data-name="Path 10" d="M330.38,277.731c-.07-.335-1.791-8.251-7.828-11.735a15.509,15.509,0,0,0-8.516-1.84l-4.819,8.4a15.431,15.431,0,0,0,5.836,6.425,15.276,15.276,0,0,0,7.654,1.859,22.538,22.538,0,0,0,6.423-.947l1.595-.524Z" transform="translate(-270.565 -231.116)" fill="#fdbf00"/>
  <path id="Path_11" data-name="Path 11" d="M211,342.887c0,6.975-6,12.538-6.262,12.763l-1.238,1.125-1.238-1.125C202,355.424,196,349.862,196,342.886a15.677,15.677,0,0,1,2.625-8.25l4.875-.038h4.837A15.53,15.53,0,0,1,211,342.887Z" transform="translate(-171.5 -292.774)" fill="#ffda2d"/>
  <path id="Path_12" data-name="Path 12" d="M260.837,334.6a15.529,15.529,0,0,1,2.663,8.287c0,6.975-6,12.538-6.262,12.763L256,356.775V334.6Z" transform="translate(-224 -292.775)" fill="#fdbf00"/>
  <path id="Path_13" data-name="Path 13" d="M211,13.887a15.927,15.927,0,0,1-3.075,8.925h-8.85A15.927,15.927,0,0,1,196,13.887c0-6.975,6-12.537,6.262-12.762L203.5,0l1.238,1.125C205,1.35,211,6.912,211,13.887Z" transform="translate(-171.5)" fill="#ffda2d"/>
  <path id="Path_14" data-name="Path 14" d="M260.425,22.812H256V0l1.238,1.125c.262.225,6.262,5.787,6.262,12.762A15.927,15.927,0,0,1,260.425,22.812Z" transform="translate(-224)" fill="#fdbf00"/>
  <path id="Path_15" data-name="Path 15" d="M164.125,151a13.125,13.125,0,1,0,13.125,13.125A13.139,13.139,0,0,0,164.125,151Z" transform="translate(-132.125 -132.125)" fill="#895d3c"/>
  <path id="Path_16" data-name="Path 16" d="M269.125,164.125A13.139,13.139,0,0,1,256,177.25V151A13.139,13.139,0,0,1,269.125,164.125Z" transform="translate(-224 -132.125)" fill="#714c2f"/>
  <rect id="Rectangle_1" data-name="Rectangle 1" width="2" height="4" transform="translate(31 27)" fill="#714c2f"/>
  <rect id="Rectangle_2" data-name="Rectangle 2" width="2" height="4" transform="translate(31 33)" fill="#714c2f"/>
  <rect id="Rectangle_3" data-name="Rectangle 3" width="4" height="2" transform="translate(27 31)" fill="#714c2f"/>
  <rect id="Rectangle_4" data-name="Rectangle 4" width="4" height="2" transform="translate(33 31)" fill="#523522"/>
  <rect id="Rectangle_5" data-name="Rectangle 5" width="1" height="4" transform="translate(32 27)" fill="#523522"/>
  <rect id="Rectangle_6" data-name="Rectangle 6" width="1" height="4" transform="translate(32 33)" fill="#523522"/>
</svg>
