<?xml version="1.0" encoding="utf-8"?>
<!-- Generator: Adobe Illustrator 24.0.1, SVG Export Plug-In . SVG Version: 6.00 Build 0)  -->
<svg version="1.1" xmlns="http://www.w3.org/2000/svg" xmlns:xlink="http://www.w3.org/1999/xlink" x="0px" y="0px"
	 viewBox="0 0 1000 841.89" style="enable-background:new 0 0 1000 841.89;" xml:space="preserve">
<style type="text/css">
	.st0{display:none;}
	.st1{display:inline;stroke:#000000;stroke-miterlimit:10;}
	.st2{fill:#FFFFFF;}
	.st3{display:inline;fill:#BE1E2D;}
	.st4{display:inline;}
	.st5{fill:none;stroke:#FFFFFF;stroke-width:6;stroke-miterlimit:10;}
	.st6{fill:none;stroke:#FFFFFF;stroke-width:7;stroke-miterlimit:10;}
	.st7{fill:#BE1E2D;}
	.st8{fill:none;stroke:#000000;stroke-miterlimit:10;}
	.st9{fill:#FFFFFF;stroke:#FFFFFF;stroke-width:0.25;stroke-miterlimit:10;}
</style>
<g id="Layer_6" class="st0">
	<rect x="-17.22" class="st1" width="1034.61" height="861.26"/>
</g>
<g id="Layer_1">
	<g>
		<g>
			<path class="st2" d="M54.18,610.67c-4.83,0-8.16-1-10-3c-1.84-2.01-2.81-4.59-2.9-7.76c0-2.7,0.5-5.94,1.51-9.71
				c1.01-3.78,2.04-7.38,3.09-10.83c2.11-6.62,4.3-13.14,6.58-19.57c2.28-6.43,4.58-12.63,6.91-18.59
				c2.32-5.96,4.56-11.65,6.71-17.05c2.15-5.4,4.15-10.39,5.99-14.96c-5.97,0.09-11.12,0.28-15.46,0.56s-8.31,0.63-11.91,1.05
				c-3.6,0.42-7.33,1-11.19,1.75c0.44-3.91,2.17-6.92,5.2-9.02s7.08-3.57,12.17-4.4c5.09-0.84,10.92-1.26,17.5-1.26
				c3.42,0,6.65,0.07,9.67,0.21s5.92,0.35,8.69,0.63c2.76,0.28,5.46,0.56,8.09,0.84c5.53,0.56,9.94,0.93,13.23,1.12
				c3.29,0.19,5.64,0.28,7.04,0.28c-2.63,2.61-5.94,4.5-9.94,5.66c-3.99,1.17-8.18,1.89-12.57,2.17c-4.39,0.28-8.55,0.42-12.5,0.42
				c-4.21,11-8.07,22.42-11.58,34.25c-3.51,11.84-6.76,23.53-9.74,35.09c-1.14,4.47-2.08,8.27-2.83,11.39
				c-0.75,3.12-1.3,5.96-1.65,8.53c-0.35,2.56-0.53,5.29-0.53,8.18c0,0.46,0.02,1,0.07,1.61C53.9,608.83,54.01,609.64,54.18,610.67z
				"/>
			<path class="st2" d="M118.93,602.14c-3.25,0-5.88-0.91-7.9-2.73c-2.02-1.82-3.03-4.26-3.03-7.34c0-2.61,0.61-5.4,1.84-8.39
				c1.23-2.98,2.48-5.92,3.75-8.81c1.27-2.89,1.91-5.45,1.91-7.69c0-2.14-0.66-3.94-1.97-5.38c-1.32-1.44-2.85-2.63-4.61-3.56
				c-1.93,5.13-4.1,10.09-6.51,14.89c-2.41,4.8-4.37,8.55-5.86,11.25l-1.97-4.05c1.23-2.42,2.85-5.87,4.87-10.35
				c2.02-4.47,3.95-9.46,5.79-14.96c-0.88-0.93-1.32-2.19-1.32-3.78c0-2.42,0.7-4.71,2.11-6.85c1.4-2.14,2.76-3.21,4.08-3.21
				c1.05,0,1.82,0.63,2.3,1.89c0.48,1.26,0.72,2.12,0.72,2.59c0,0.47-0.2,1.31-0.59,2.52c-0.4,1.21-0.68,2.1-0.86,2.66
				c0.09,1.03,0.86,2.03,2.3,3c1.45,0.98,3.09,2.12,4.94,3.43c1.84,1.31,3.46,2.94,4.87,4.89c1.4,1.96,2.11,4.43,2.11,7.41
				c0,2.7-0.57,5.45-1.71,8.25c-1.14,2.8-2.28,5.41-3.42,7.83c-1.14,2.42-1.71,4.52-1.71,6.29c0,1.31,0.33,2.17,0.99,2.59
				c0.66,0.42,1.42,0.63,2.3,0.63c2.11,0,4.3-0.68,6.58-2.03c2.28-1.35,4.52-3.1,6.71-5.24c2.19-2.14,4.12-4.4,5.79-6.78
				c1.67-2.38,2.94-4.54,3.82-6.5l3.16,2.52c-1.67,4.01-4.08,7.95-7.24,11.81s-6.67,7.04-10.53,9.51
				C126.78,600.9,122.88,602.14,118.93,602.14z"/>
			<path class="st2" d="M157.62,604.66c-5.62,0-9.94-1.61-12.96-4.82c-3.03-3.22-4.54-7.25-4.54-12.09c0-4.1,0.99-8.46,2.96-13.07
				c1.97-4.61,4.63-8.95,7.96-13c3.33-4.05,7.02-7.34,11.05-9.86c4.03-2.52,8.07-3.77,12.11-3.77c2.28,0,4.45,0.63,6.51,1.89
				c2.06,1.26,3.09,3.75,3.09,7.48c0,3.54-0.97,6.85-2.9,9.92c-1.93,3.08-4.52,5.83-7.76,8.25c-3.25,2.42-6.82,4.4-10.73,5.94
				c-3.9,1.54-7.83,2.54-11.78,3.01c-0.09,0.37-0.15,0.77-0.2,1.19c-0.05,0.42-0.07,1.1-0.07,2.03c0,0.47,0.07,1.28,0.2,2.45
				c0.13,1.17,0.5,2.4,1.12,3.7c0.61,1.31,1.62,2.42,3.03,3.35c1.4,0.93,3.33,1.4,5.79,1.4c3.68,0,7.39-1.09,11.12-3.29
				c3.73-2.19,7.24-5.1,10.53-8.74c3.29-3.63,6.03-7.69,8.22-12.16l2.63,2.24c-2.37,5.59-5.42,10.48-9.15,14.68
				c-3.73,4.19-7.85,7.46-12.37,9.79C166.98,603.49,162.35,604.66,157.62,604.66z M152.09,579.35c2.28-0.28,4.82-1.12,7.63-2.52
				c2.81-1.4,5.5-3.17,8.09-5.31c2.59-2.14,4.71-4.5,6.38-7.06c1.67-2.56,2.5-5.15,2.5-7.76c0-1.03-0.18-1.72-0.53-2.1
				c-0.35-0.37-0.92-0.56-1.71-0.56c-2.02,0-4.12,0.77-6.32,2.31c-2.19,1.54-4.34,3.54-6.45,6.01c-2.11,2.47-3.99,5.2-5.66,8.18
				C154.37,573.53,153.05,576.46,152.09,579.35z"/>
			<path class="st2" d="M202.62,605.63c-4.39,0-7.92-0.96-10.59-2.87c-2.68-1.91-4.59-4.33-5.72-7.27
				c-1.14-2.94-1.71-5.94-1.71-9.02c0-2.7,0.35-4.8,1.05-6.29c0.7-1.49,1.58-2.59,2.63-3.29s2.04-1.23,2.96-1.61
				c0.92-0.37,1.6-0.79,2.04-1.26c2.19-2.42,4.45-5.24,6.78-8.46c2.32-3.22,4.32-6.78,5.99-10.7v-1.4c0-3.73,0.59-6.36,1.78-7.9
				s2.57-2.31,4.15-2.31c1.05,0,1.82,0.28,2.3,0.84c0.48,0.56,0.77,1.21,0.86,1.96c0,0.56-0.11,1.21-0.33,1.96
				c-0.22,0.75-0.33,1.77-0.33,3.08c0,2.79,0.64,5.99,1.91,9.58c1.27,3.59,2.54,7.39,3.82,11.39c1.27,4.01,1.91,8.11,1.91,12.3
				c0,1.12-0.05,2.15-0.13,3.08c-0.09,0.93-0.22,1.82-0.39,2.66c2.72-0.74,5.4-2.35,8.03-4.82c2.63-2.47,5.13-6.13,7.5-10.97
				l1.58,1.26c-1.67,5.31-4.08,9.58-7.24,12.79c-3.16,3.22-6.84,5.2-11.05,5.94c-1.4,3.82-3.71,6.66-6.91,8.53
				C210.27,604.7,206.65,605.63,202.62,605.63z M201.7,599.48c1.75,0,3.38-0.47,4.87-1.4c1.49-0.93,2.67-2.28,3.55-4.05
				c-3.6-0.84-6.84-2.33-9.74-4.47c-2.9-2.14-5.13-4.33-6.71-6.57c-1.23,0.28-1.84,1.54-1.84,3.77c0,3.08,0.83,5.97,2.5,8.67
				C195.99,598.13,198.45,599.48,201.7,599.48z M211.17,589.84c0.17-0.65,0.28-1.42,0.33-2.31c0.04-0.88,0.07-1.56,0.07-2.03
				c-0.09-4.19-0.61-8.34-1.58-12.44c-0.97-4.1-1.93-8.29-2.9-12.58c-1.58,2.89-3.42,6.01-5.53,9.37c-2.11,3.35-4.08,6.06-5.92,8.11
				c1.4,2.52,3.46,4.89,6.19,7.13C204.55,587.32,207.66,588.91,211.17,589.84z"/>
			<path class="st2" d="M239.47,603.82c-1.93,0-3.31-1.58-4.15-4.75c-0.83-3.17-1.25-6.85-1.25-11.04c0-4.29,0.68-9.46,2.04-15.52
				c1.36-6.06,3.2-12.44,5.53-19.15c2.32-6.71,4.91-13.28,7.76-19.71c2.85-6.43,5.79-12.28,8.82-17.54
				c3.03-5.26,5.92-9.48,8.69-12.65c2.76-3.17,5.2-4.75,7.3-4.75c1.84,0,3.24,1.07,4.21,3.21c0.96,2.15,1.45,4.38,1.45,6.71
				c0,2.52-0.55,5.62-1.65,9.3c-1.1,3.68-2.61,7.62-4.54,11.81c-1.93,4.19-4.19,8.32-6.78,12.37c-2.59,4.05-5.4,7.76-8.42,11.11
				c-3.03,3.36-6.16,6.06-9.41,8.11c-1.14,3.17-2.04,6.13-2.7,8.88c-0.66,2.75-1.12,5.34-1.38,7.76c-0.26,2.42-0.4,4.8-0.4,7.13
				c0,0.47,0.02,0.96,0.07,1.47c0.04,0.51,0.07,1,0.07,1.47c0.35-0.56,0.92-2,1.71-4.33c0.79-2.33,1.86-5.05,3.22-8.18
				c1.36-3.12,3.05-6.2,5.07-9.23c2.02-3.03,4.39-5.54,7.11-7.55c2.72-2,5.83-3.01,9.34-3.01c2.98,0,5.31,0.72,6.97,2.17
				c1.67,1.45,2.85,3.21,3.55,5.31c0.7,2.1,1.05,4.22,1.05,6.36c0,2.98-0.46,5.78-1.38,8.39c-0.92,2.61-1.84,5.06-2.76,7.34
				c-0.92,2.28-1.38,4.45-1.38,6.5c0,1.68,0.35,2.84,1.05,3.49c0.7,0.65,1.53,0.98,2.5,0.98c1.93,0,4.19-1.02,6.78-3.07
				c2.59-2.05,5.18-4.78,7.76-8.18c2.59-3.4,4.8-7.15,6.65-11.25l2.11,2.38c-2.02,4.66-4.39,8.95-7.11,12.86
				c-2.72,3.91-5.7,7.04-8.95,9.37c-3.25,2.33-6.76,3.49-10.53,3.49c-3.33,0-5.88-0.93-7.63-2.79c-1.76-1.86-2.63-4.19-2.63-6.99
				c0-1.96,0.33-4.12,0.99-6.5c0.66-2.38,1.29-4.78,1.91-7.2c0.61-2.42,0.92-4.61,0.92-6.57c0-2.24-0.46-3.78-1.38-4.61
				c-0.92-0.84-2.04-1.26-3.36-1.26c-2.19,0-4.17,0.91-5.92,2.73c-1.76,1.82-3.33,4.17-4.74,7.06c-1.4,2.89-2.72,5.94-3.95,9.16
				c-1.23,3.21-2.46,6.27-3.69,9.16c-1.23,2.89-2.52,5.24-3.88,7.06C242.78,602.91,241.22,603.82,239.47,603.82z M251.84,552.37
				c2.28-2.14,4.47-4.71,6.58-7.69c2.11-2.98,4.06-6.08,5.86-9.3c1.8-3.22,3.38-6.34,4.74-9.37c1.36-3.03,2.43-5.75,3.22-8.18
				c0.79-2.42,1.23-4.29,1.32-5.59c0-0.09,0-0.16,0-0.21c0-0.05,0-0.12,0-0.21c-0.53,0-1.65,1.14-3.36,3.43
				c-1.71,2.28-3.68,5.36-5.92,9.23c-2.24,3.87-4.47,8.22-6.71,13.07C255.32,542.4,253.42,547.34,251.84,552.37z"/>
			<path class="st2" d="M305.79,605.08c-2.9,0-5.42-1.03-7.57-3.08c-2.15-2.05-3.22-5.13-3.22-9.23c0-3.26,0.7-6.8,2.11-10.63
				c1.4-3.82,3.33-7.59,5.79-11.32c2.46-3.73,5.26-7.11,8.42-10.14c3.16-3.03,6.53-5.47,10.13-7.34c3.6-1.86,7.19-2.8,10.79-2.8
				c3.77,0,6.97,1.03,9.61,3.08c2.63,2.05,3.95,4.75,3.95,8.11c0,2.52-0.83,4.33-2.5,5.45c-1.67,1.12-3.64,1.45-5.92,0.98
				c0.17-0.84,0.33-1.68,0.46-2.52c0.13-0.84,0.2-1.72,0.2-2.66c0-1.86-0.35-3.54-1.05-5.03c-0.7-1.49-2.19-2.24-4.47-2.24
				c-2.46,0-4.96,0.89-7.5,2.66c-2.55,1.77-4.98,4.08-7.3,6.92c-2.33,2.84-4.41,5.97-6.25,9.37c-1.84,3.4-3.29,6.73-4.34,10
				c-1.05,3.26-1.58,6.2-1.58,8.81c0,2.98,1.01,4.47,3.03,4.47c2.02,0,4.25-1.05,6.71-3.14c2.46-2.1,4.94-4.73,7.44-7.9
				c2.5-3.17,4.89-6.41,7.17-9.72c2.28-3.31,4.25-6.13,5.92-8.46c0.26-0.46,0.61-0.7,1.05-0.7c0.35,0.09,1.03,0.3,2.04,0.63
				c1.01,0.33,1.95,0.82,2.83,1.47c0.88,0.65,1.32,1.49,1.32,2.52c0,0.93-0.37,2.12-1.12,3.56c-0.75,1.45-1.62,3.03-2.63,4.75
				c-1.01,1.72-1.89,3.45-2.63,5.17c-0.75,1.73-1.12,3.38-1.12,4.96c0,1.21,0.31,2.35,0.92,3.42c0.61,1.07,1.62,1.61,3.03,1.61
				c2.11,0,5.07-1.65,8.88-4.96c3.82-3.31,7.7-8.92,11.65-16.85l2.5,2.66c-2.11,5.03-4.63,9.48-7.57,13.35
				c-2.94,3.87-6.03,6.9-9.28,9.09c-3.25,2.19-6.54,3.29-9.87,3.29c-3.6,0-6.27-1.21-8.03-3.63c-1.76-2.42-2.72-5.03-2.9-7.83
				c0-0.19,0-0.33,0-0.42c0-0.09,0-0.19,0-0.28c-3.51,4.47-6.73,8.01-9.67,10.62C312.26,603.77,309.12,605.08,305.79,605.08z"/>
		</g>
	</g>
	<g>
		<g>
			<path class="st2" d="M444.48,603.34c-1.93,0-3.31-1.58-4.15-4.73c-0.83-3.15-1.25-6.82-1.25-11c0-4.27,0.68-9.42,2.04-15.45
				c1.36-6.03,3.2-12.39,5.53-19.07c2.32-6.68,4.91-13.22,7.76-19.63c2.85-6.4,5.79-12.23,8.82-17.47c3.03-5.24,5.92-9.44,8.69-12.6
				c2.76-3.15,5.2-4.73,7.3-4.73c1.84,0,3.24,1.07,4.21,3.2c0.96,2.14,1.45,4.36,1.45,6.68c0,2.51-0.55,5.59-1.65,9.26
				c-1.1,3.67-2.61,7.59-4.54,11.76c-1.93,4.18-4.19,8.28-6.78,12.32c-2.59,4.04-5.4,7.73-8.42,11.07s-6.16,6.03-9.41,8.07
				c-1.14,3.16-2.04,6.1-2.7,8.84c-0.66,2.74-1.12,5.31-1.38,7.73c-0.26,2.41-0.4,4.78-0.4,7.1c0,0.47,0.02,0.95,0.07,1.46
				c0.04,0.51,0.07,1,0.07,1.46c0.35-0.56,0.92-1.99,1.71-4.31c0.79-2.32,1.86-5.03,3.22-8.14c1.36-3.11,3.05-6.17,5.07-9.19
				c2.02-3.01,4.39-5.52,7.11-7.52c2.72-1.99,5.83-2.99,9.34-2.99c2.98,0,5.31,0.72,6.97,2.16c1.67,1.44,2.85,3.2,3.55,5.29
				c0.7,2.09,1.05,4.2,1.05,6.33c0,2.97-0.46,5.75-1.38,8.35c-0.92,2.6-1.84,5.03-2.76,7.31c-0.92,2.28-1.38,4.43-1.38,6.47
				c0,1.67,0.35,2.83,1.05,3.48c0.7,0.65,1.53,0.97,2.5,0.97c1.93,0,4.19-1.02,6.78-3.06c2.59-2.04,5.18-4.75,7.76-8.14
				c2.59-3.39,4.8-7.12,6.65-11.21l2.11,2.37c-2.02,4.64-4.39,8.91-7.11,12.81c-2.72,3.9-5.7,7.01-8.95,9.33
				c-3.25,2.32-6.76,3.48-10.53,3.48c-3.33,0-5.88-0.93-7.63-2.78c-1.76-1.86-2.63-4.18-2.63-6.96c0-1.95,0.33-4.11,0.99-6.47
				c0.66-2.37,1.29-4.75,1.91-7.17c0.61-2.41,0.92-4.59,0.92-6.54c0-2.23-0.46-3.76-1.38-4.59c-0.92-0.83-2.04-1.25-3.36-1.25
				c-2.19,0-4.17,0.91-5.92,2.71c-1.76,1.81-3.33,4.15-4.74,7.03c-1.4,2.88-2.72,5.92-3.95,9.12c-1.23,3.2-2.46,6.24-3.69,9.12
				c-1.23,2.88-2.52,5.22-3.88,7.03C447.79,602.44,446.23,603.34,444.48,603.34z M456.85,552.12c2.28-2.13,4.47-4.69,6.58-7.66
				c2.11-2.97,4.06-6.06,5.86-9.26c1.8-3.2,3.38-6.31,4.74-9.33c1.36-3.01,2.43-5.73,3.22-8.14c0.79-2.41,1.23-4.27,1.32-5.57
				c0-0.09,0-0.16,0-0.21c0-0.05,0-0.12,0-0.21c-0.53,0-1.65,1.14-3.36,3.41c-1.71,2.28-3.68,5.34-5.92,9.19
				c-2.24,3.85-4.47,8.19-6.71,13.01C460.33,542.19,458.42,547.11,456.85,552.12z"/>
			<path class="st2" d="M512.11,602.51c-3.95,0-6.65-1.37-8.09-4.11c-1.45-2.74-2.17-5.73-2.17-8.98c0-2.97,0.44-6.01,1.32-9.12
				c0.88-3.11,2.08-6.01,3.62-8.7c1.53-2.69,3.25-4.85,5.13-6.47c1.88-1.62,3.79-2.44,5.72-2.44c0.61,0,1.34,0.12,2.17,0.35
				c0.83,0.23,1.42,0.58,1.78,1.04c-1.05,1.39-2.13,3.11-3.22,5.15c-1.1,2.04-2.11,4.2-3.03,6.47c-0.92,2.28-1.64,4.57-2.17,6.89
				c-0.53,2.32-0.79,4.45-0.79,6.4c0,1.86,0.33,3.39,0.99,4.59c0.66,1.21,1.82,1.81,3.49,1.81c1.67,0,3.66-1,5.99-2.99
				c2.32-1.99,4.54-4.29,6.65-6.89c-2.81-2.69-4.83-5.64-6.05-8.84c-1.23-3.2-1.84-7.08-1.84-11.62c0-1.95,0.46-4.18,1.38-6.68
				s2.41-4.68,4.47-6.54c2.06-1.85,4.85-2.78,8.36-2.78c3.77,0,6.43,1.11,7.96,3.34c1.53,2.23,2.3,4.87,2.3,7.93
				c0,3.43-0.86,7.29-2.57,11.55c-1.71,4.27-3.75,8.31-6.12,12.11c1.05,0.56,2.28,0.84,3.69,0.84c1.32,0,2.89-0.32,4.74-0.97
				c1.84-0.65,3.64-1.74,5.4-3.27c1.75-1.53,3.16-3.59,4.21-6.19l2.37,1.81c-1.93,4.73-4.5,8.19-7.7,10.37
				c-3.2,2.18-6.34,3.27-9.41,3.27c-1.14,0-2.28-0.12-3.42-0.35c-1.14-0.23-2.19-0.53-3.16-0.91c-2.98,3.71-6.41,6.96-10.26,9.74
				C519.96,601.12,516.06,602.51,512.11,602.51z M532.91,581.07c2.11-3.25,3.9-6.73,5.4-10.44c1.49-3.71,2.24-7.14,2.24-10.3
				c0-2.13-0.31-3.69-0.92-4.66c-0.61-0.97-1.54-1.46-2.76-1.46c-1.67,0-3.38,1.25-5.13,3.76c-1.76,2.51-2.63,5.66-2.63,9.47
				c0,1.95,0.33,4.32,0.99,7.1C530.73,577.31,531.68,579.49,532.91,581.07z"/>
			<path class="st2" d="M564.36,604.46c-3.86,0-6.97-1.21-9.34-3.62c-2.37-2.41-3.55-6.08-3.55-11c0-3.8,0.68-8.54,2.04-14.2
				c1.36-5.66,3.09-11.51,5.2-17.54c-0.61-0.18-1.34-0.35-2.17-0.49c-0.83-0.14-1.65-0.39-2.43-0.77v-4.32
				c1.4,0.19,2.57,0.33,3.49,0.42c0.92,0.09,1.86,0.19,2.83,0.28c1.84-4.92,3.84-9.67,5.99-14.27c2.15-4.59,4.3-8.7,6.45-12.32
				c2.15-3.62,4.19-6.47,6.12-8.56c1.93-2.09,3.64-3.13,5.13-3.13c0.88,0,1.71,0.35,2.5,1.04c0.79,0.7,1.18,1.69,1.18,2.99
				c0,1.86-0.9,4.5-2.7,7.93c-1.8,3.43-4.01,7.45-6.65,12.04c-2.63,4.59-5.18,9.49-7.63,14.69c0.7,0,1.4,0,2.11,0
				c0.7,0,1.36,0,1.97,0c3.86,0,7.35-0.07,10.46-0.21c3.11-0.14,6.29-0.39,9.54-0.77v4.59c-4.83,0.46-9.26,0.83-13.29,1.11
				c-4.04,0.28-7.9,0.47-11.58,0.56c-0.26,0-0.53,0-0.79,0c-0.26,0-0.53,0-0.79,0c-1.84,4.55-3.44,9.21-4.8,13.99
				c-1.36,4.78-2.04,9.44-2.04,13.99c0,3.81,0.57,6.5,1.71,8.07c1.14,1.58,2.94,2.37,5.39,2.37c4.39,0,8.88-2.11,13.49-6.33
				c4.61-4.22,8.62-9.95,12.04-17.19l1.84,1.39c-2.28,5.48-5.11,10.44-8.49,14.89c-3.38,4.45-7.04,7.96-10.99,10.51
				C572.65,603.18,568.57,604.46,564.36,604.46z"/>
			<path class="st2" d="M598.97,602.51c-3.95,0-6.65-1.37-8.09-4.11c-1.45-2.74-2.17-5.73-2.17-8.98c0-2.97,0.44-6.01,1.32-9.12
				c0.88-3.11,2.08-6.01,3.62-8.7c1.53-2.69,3.25-4.85,5.13-6.47c1.88-1.62,3.79-2.44,5.72-2.44c0.61,0,1.34,0.12,2.17,0.35
				c0.83,0.23,1.42,0.58,1.78,1.04c-1.05,1.39-2.13,3.11-3.22,5.15c-1.1,2.04-2.11,4.2-3.03,6.47c-0.92,2.28-1.64,4.57-2.17,6.89
				c-0.53,2.32-0.79,4.45-0.79,6.4c0,1.86,0.33,3.39,0.99,4.59c0.66,1.21,1.82,1.81,3.49,1.81c1.67,0,3.66-1,5.99-2.99
				c2.32-1.99,4.54-4.29,6.65-6.89c-2.81-2.69-4.83-5.64-6.05-8.84c-1.23-3.2-1.84-7.08-1.84-11.62c0-1.95,0.46-4.18,1.38-6.68
				s2.41-4.68,4.47-6.54c2.06-1.85,4.85-2.78,8.36-2.78c3.77,0,6.43,1.11,7.96,3.34c1.53,2.23,2.3,4.87,2.3,7.93
				c0,3.43-0.86,7.29-2.57,11.55c-1.71,4.27-3.75,8.31-6.12,12.11c1.05,0.56,2.28,0.84,3.69,0.84c1.32,0,2.89-0.32,4.74-0.97
				c1.84-0.65,3.64-1.74,5.4-3.27c1.75-1.53,3.16-3.59,4.21-6.19l2.37,1.81c-1.93,4.73-4.5,8.19-7.7,10.37
				c-3.2,2.18-6.34,3.27-9.41,3.27c-1.14,0-2.28-0.12-3.42-0.35c-1.14-0.23-2.19-0.53-3.16-0.91c-2.98,3.71-6.41,6.96-10.26,9.74
				C606.82,601.12,602.91,602.51,598.97,602.51z M619.76,581.07c2.11-3.25,3.9-6.73,5.4-10.44c1.49-3.71,2.24-7.14,2.24-10.3
				c0-2.13-0.31-3.69-0.92-4.66c-0.61-0.97-1.54-1.46-2.76-1.46c-1.67,0-3.38,1.25-5.13,3.76c-1.76,2.51-2.63,5.66-2.63,9.47
				c0,1.95,0.33,4.32,0.99,7.1C617.59,577.31,618.53,579.49,619.76,581.07z"/>
			<path class="st2" d="M645.81,637.03c-2.19,0-4.23-0.7-6.12-2.09c-1.89-1.39-2.83-3.67-2.83-6.82c0-2.97,0.81-5.64,2.43-8
				c1.62-2.37,3.77-4.55,6.45-6.54c2.68-2,5.55-3.83,8.62-5.5c3.07-1.67,6.05-3.25,8.95-4.73c0.96-2.51,1.89-5.2,2.76-8.07
				c0.88-2.88,1.71-5.99,2.5-9.33c-3.07,4.08-6.3,7.47-9.67,10.16c-3.38,2.69-6.82,4.04-10.33,4.04c-3.51,0-6.3-1.3-8.36-3.9
				c-2.06-2.6-3.09-6.03-3.09-10.3c0-4.92,1.16-9.54,3.49-13.85s5.33-8.17,9.01-11.55c3.68-3.39,7.63-6.03,11.84-7.93
				c4.21-1.9,8.25-2.85,12.11-2.85c2.81,0,4.91,0.54,6.32,1.6c1.4,1.07,2.11,2.3,2.11,3.69c0,1.11-0.31,2-0.92,2.64
				c-0.62,0.65-1.01,1.02-1.18,1.11c-0.88-1.02-1.78-1.69-2.7-2.02c-0.92-0.32-2-0.49-3.22-0.49c-3.42,0-6.71,1.02-9.87,3.06
				c-3.16,2.04-5.94,4.66-8.36,7.86c-2.41,3.2-4.32,6.52-5.72,9.95c-1.4,3.43-2.11,6.54-2.11,9.33c0,1.86,0.39,3.27,1.18,4.25
				c0.79,0.97,1.75,1.46,2.89,1.46c2.46,0,5.44-1.69,8.95-5.08c3.51-3.39,6.89-7.49,10.13-12.32c0.17-0.74,0.33-1.41,0.46-2.02
				c0.13-0.6,0.24-1.18,0.33-1.74c0.88-3.71,1.93-6.45,3.16-8.21c1.23-1.76,2.94-2.64,5.13-2.64c0.44,0,0.99,0.05,1.65,0.14
				c0.66,0.09,1.38,0.23,2.17,0.42c0,1.67-0.44,4.41-1.32,8.21c-0.88,3.81-2.06,8.24-3.55,13.29c-1.49,5.06-3.16,10.23-5,15.52
				c2.72-1.21,5.48-2.9,8.29-5.08c2.81-2.18,5.4-4.82,7.76-7.93c2.37-3.11,4.17-6.56,5.4-10.37l2.37,2.51
				c-1.4,4.27-3.58,8.17-6.51,11.69c-2.94,3.53-6.12,6.57-9.54,9.12c-3.42,2.55-6.58,4.52-9.47,5.92
				c-2.37,6.12-4.93,11.71-7.7,16.77c-2.76,5.06-5.7,9.09-8.82,12.11C652.76,635.52,649.41,637.03,645.81,637.03z M645.29,630.63
				c1.58,0,3.75-1.58,6.51-4.73c2.76-3.16,5.77-8.49,9.01-16.01c-3.25,1.67-6.23,3.39-8.95,5.15c-2.72,1.76-4.91,3.62-6.58,5.57
				c-1.67,1.95-2.5,3.99-2.5,6.12c0,1.21,0.24,2.16,0.72,2.85C643.99,630.28,644.58,630.63,645.29,630.63z"/>
			<path class="st2" d="M716.61,601.67c-3.25,0-5.88-0.9-7.9-2.71c-2.02-1.81-3.03-4.25-3.03-7.31c0-2.6,0.61-5.38,1.84-8.35
				c1.23-2.97,2.48-5.89,3.75-8.77c1.27-2.88,1.91-5.43,1.91-7.66c0-2.13-0.66-3.92-1.97-5.36c-1.32-1.44-2.85-2.62-4.61-3.55
				c-1.93,5.11-4.1,10.05-6.51,14.83c-2.41,4.78-4.37,8.51-5.86,11.21l-1.97-4.04c1.23-2.41,2.85-5.85,4.87-10.3
				c2.02-4.46,3.95-9.42,5.79-14.89c-0.88-0.93-1.32-2.18-1.32-3.76c0-2.41,0.7-4.68,2.11-6.82c1.4-2.13,2.76-3.2,4.08-3.2
				c1.05,0,1.82,0.63,2.3,1.88c0.48,1.25,0.72,2.11,0.72,2.58c0,0.46-0.2,1.3-0.59,2.5c-0.39,1.21-0.68,2.09-0.86,2.65
				c0.09,1.02,0.86,2.02,2.3,2.99s3.09,2.11,4.93,3.41c1.84,1.3,3.46,2.92,4.87,4.87c1.4,1.95,2.11,4.41,2.11,7.38
				c0,2.69-0.57,5.43-1.71,8.21c-1.14,2.78-2.28,5.38-3.42,7.79c-1.14,2.41-1.71,4.5-1.71,6.26c0,1.3,0.33,2.16,0.99,2.58
				c0.66,0.42,1.42,0.63,2.3,0.63c2.11,0,4.3-0.67,6.58-2.02c2.28-1.34,4.52-3.08,6.71-5.22c2.19-2.13,4.12-4.38,5.79-6.75
				c1.67-2.37,2.94-4.52,3.82-6.47l3.16,2.5c-1.67,3.99-4.08,7.91-7.24,11.76c-3.16,3.85-6.67,7.01-10.53,9.47
				C724.46,600.44,720.56,601.67,716.61,601.67z"/>
			<path class="st2" d="M747.4,604.6c-2.89,0-5.42-1.02-7.57-3.06c-2.15-2.04-3.22-5.1-3.22-9.19c0-3.25,0.7-6.77,2.11-10.58
				c1.4-3.8,3.33-7.56,5.79-11.28c2.46-3.71,5.26-7.08,8.42-10.09c3.16-3.01,6.53-5.45,10.13-7.31c3.6-1.85,7.19-2.78,10.79-2.78
				c3.77,0,6.97,1.02,9.61,3.06c2.63,2.04,3.95,4.73,3.95,8.07c0,2.51-0.83,4.32-2.5,5.43c-1.67,1.11-3.64,1.44-5.92,0.97
				c0.17-0.84,0.33-1.67,0.46-2.51c0.13-0.83,0.2-1.72,0.2-2.64c0-1.86-0.35-3.53-1.05-5.01c-0.7-1.48-2.19-2.23-4.47-2.23
				c-2.46,0-4.96,0.88-7.5,2.64c-2.54,1.76-4.98,4.06-7.3,6.89c-2.33,2.83-4.41,5.94-6.25,9.33c-1.84,3.39-3.29,6.71-4.34,9.95
				c-1.05,3.25-1.58,6.17-1.58,8.77c0,2.97,1.01,4.45,3.03,4.45c2.02,0,4.25-1.04,6.71-3.13c2.46-2.09,4.94-4.71,7.44-7.87
				c2.5-3.15,4.89-6.38,7.17-9.67c2.28-3.29,4.25-6.1,5.92-8.42c0.26-0.46,0.61-0.7,1.05-0.7c0.35,0.09,1.03,0.3,2.04,0.63
				c1.01,0.33,1.95,0.81,2.83,1.46c0.88,0.65,1.32,1.49,1.32,2.51c0,0.93-0.38,2.11-1.12,3.55c-0.75,1.44-1.62,3.02-2.63,4.73
				c-1.01,1.72-1.89,3.43-2.63,5.15c-0.75,1.72-1.12,3.37-1.12,4.94c0,1.21,0.31,2.34,0.92,3.41c0.61,1.07,1.62,1.6,3.03,1.6
				c2.11,0,5.07-1.65,8.88-4.94c3.82-3.29,7.7-8.88,11.65-16.77l2.5,2.65c-2.11,5.01-4.63,9.44-7.57,13.29
				c-2.94,3.85-6.03,6.87-9.28,9.05c-3.25,2.18-6.54,3.27-9.87,3.27c-3.6,0-6.27-1.21-8.03-3.62c-1.76-2.41-2.72-5.01-2.9-7.79
				c0-0.18,0-0.32,0-0.42c0-0.09,0-0.18,0-0.28c-3.51,4.45-6.73,7.98-9.67,10.58C753.87,603.3,750.74,604.6,747.4,604.6z"/>
			<path class="st2" d="M791.09,637.03c-0.7,0-1.45-0.21-2.24-0.63s-1.47-0.91-2.04-1.46c-0.57-0.56-0.9-1.02-0.99-1.39
				c2.19-6.78,4.06-12.65,5.59-17.61c1.54-4.96,2.83-9.65,3.88-14.06s2-9,2.83-13.78c0.83-4.78,1.67-10.25,2.5-16.42
				c0.83-6.17,1.78-13.62,2.83-22.34c0.17-1.11,0.39-1.92,0.66-2.44c0.26-0.51,1.1-0.77,2.5-0.77c2.72,0,4.69,0.77,5.92,2.3
				c1.23,1.53,1.84,3.23,1.84,5.08c0,0.93-0.15,2.55-0.46,4.87c-0.31,2.32-0.77,5.06-1.38,8.21c1.67-2.69,3.57-5.24,5.72-7.66
				c2.15-2.41,4.54-4.38,7.17-5.92c2.63-1.53,5.48-2.3,8.55-2.3c4.3,0,7.85,1.53,10.66,4.59c2.81,3.06,4.21,7.1,4.21,12.11
				c0,3.62-0.77,7.45-2.3,11.48c-1.54,4.04-3.71,7.84-6.51,11.41c-2.81,3.57-6.18,6.5-10.13,8.77c-3.95,2.27-8.29,3.41-13.03,3.41
				c-2.81,0-5.05-0.37-6.71-1.11c-1.67-0.74-2.5-1.58-2.5-2.51c0-0.65,0.33-1.04,0.99-1.18c0.66-0.14,1.38-0.21,2.17-0.21
				c4.12-0.09,7.87-1.02,11.25-2.78c3.38-1.76,6.29-4.06,8.75-6.89c2.46-2.83,4.34-5.87,5.66-9.12c1.32-3.25,1.97-6.45,1.97-9.6
				c0-2.78-0.59-5.2-1.78-7.24c-1.18-2.04-3.05-3.06-5.59-3.06c-2.19,0-4.41,0.74-6.65,2.23c-2.24,1.49-4.32,3.37-6.25,5.64
				c-1.93,2.28-3.64,4.64-5.13,7.1c-1.49,2.46-2.63,4.62-3.42,6.47c-1.67,6.13-3.18,12.23-4.54,18.3
				c-1.36,6.08-2.65,11.71-3.88,16.91c-1.23,5.2-2.48,9.6-3.75,13.22c-1.27,3.62-2.65,6.08-4.14,7.38
				C792.63,636.7,791.88,637.03,791.09,637.03z"/>
			<path class="st2" d="M858.86,603.34c-1.93,0-3.31-1.58-4.15-4.73c-0.83-3.15-1.25-6.82-1.25-11c0-4.27,0.68-9.42,2.04-15.45
				c1.36-6.03,3.2-12.39,5.53-19.07c2.32-6.68,4.91-13.22,7.76-19.63c2.85-6.4,5.79-12.23,8.82-17.47c3.03-5.24,5.92-9.44,8.69-12.6
				c2.76-3.15,5.2-4.73,7.3-4.73c1.84,0,3.24,1.07,4.21,3.2c0.96,2.14,1.45,4.36,1.45,6.68c0,2.51-0.55,5.59-1.64,9.26
				c-1.1,3.67-2.61,7.59-4.54,11.76c-1.93,4.18-4.19,8.28-6.78,12.32c-2.59,4.04-5.4,7.73-8.42,11.07
				c-3.03,3.34-6.17,6.03-9.41,8.07c-1.14,3.16-2.04,6.1-2.7,8.84c-0.66,2.74-1.12,5.31-1.38,7.73c-0.26,2.41-0.39,4.78-0.39,7.1
				c0,0.47,0.02,0.95,0.07,1.46c0.04,0.51,0.07,1,0.07,1.46c0.35-0.56,0.92-1.99,1.71-4.31c0.79-2.32,1.86-5.03,3.22-8.14
				c1.36-3.11,3.05-6.17,5.07-9.19c2.02-3.01,4.39-5.52,7.11-7.52c2.72-1.99,5.83-2.99,9.34-2.99c2.98,0,5.31,0.72,6.97,2.16
				c1.67,1.44,2.85,3.2,3.55,5.29c0.7,2.09,1.05,4.2,1.05,6.33c0,2.97-0.46,5.75-1.38,8.35c-0.92,2.6-1.84,5.03-2.76,7.31
				c-0.92,2.28-1.38,4.43-1.38,6.47c0,1.67,0.35,2.83,1.05,3.48c0.7,0.65,1.53,0.97,2.5,0.97c1.93,0,4.19-1.02,6.78-3.06
				c2.59-2.04,5.18-4.75,7.76-8.14c2.59-3.39,4.8-7.12,6.65-11.21l2.11,2.37c-2.02,4.64-4.39,8.91-7.11,12.81
				c-2.72,3.9-5.7,7.01-8.95,9.33c-3.25,2.32-6.76,3.48-10.53,3.48c-3.33,0-5.88-0.93-7.63-2.78c-1.76-1.86-2.63-4.18-2.63-6.96
				c0-1.95,0.33-4.11,0.99-6.47c0.66-2.37,1.29-4.75,1.91-7.17c0.61-2.41,0.92-4.59,0.92-6.54c0-2.23-0.46-3.76-1.38-4.59
				c-0.92-0.83-2.04-1.25-3.36-1.25c-2.19,0-4.17,0.91-5.92,2.71c-1.76,1.81-3.34,4.15-4.74,7.03c-1.4,2.88-2.72,5.92-3.95,9.12
				c-1.23,3.2-2.46,6.24-3.68,9.12c-1.23,2.88-2.52,5.22-3.88,7.03C862.17,602.44,860.62,603.34,858.86,603.34z M871.23,552.12
				c2.28-2.13,4.47-4.69,6.58-7.66c2.11-2.97,4.06-6.06,5.86-9.26c1.8-3.2,3.38-6.31,4.74-9.33c1.36-3.01,2.43-5.73,3.22-8.14
				c0.79-2.41,1.23-4.27,1.32-5.57c0-0.09,0-0.16,0-0.21c0-0.05,0-0.12,0-0.21c-0.53,0-1.65,1.14-3.36,3.41
				c-1.71,2.28-3.68,5.34-5.92,9.19c-2.24,3.85-4.47,8.19-6.71,13.01C874.72,542.19,872.81,547.11,871.23,552.12z"/>
			<path class="st2" d="M924.13,637.03c-2.19,0-4.23-0.72-6.12-2.16c-1.89-1.44-2.83-3.74-2.83-6.89c0-2.97,0.83-5.64,2.5-8
				c1.67-2.37,3.82-4.55,6.45-6.54c2.63-2,5.46-3.81,8.49-5.43c3.03-1.63,5.94-3.13,8.75-4.52c0.96-2.69,2.04-6.1,3.22-10.23
				c1.18-4.13,2.21-7.96,3.09-11.48c-2.72,3.99-5.62,7.52-8.69,10.58c-3.07,3.06-6.49,4.59-10.26,4.59c-1.58,0-3.25-0.35-5-1.04
				c-1.76-0.7-3.22-1.9-4.41-3.62c-1.18-1.72-1.78-4.01-1.78-6.89c0-2.41,0.42-5.34,1.25-8.77c0.83-3.43,1.88-6.8,3.16-10.09
				c1.27-3.29,2.61-6.03,4.01-8.21c1.4-2.18,2.63-3.27,3.68-3.27c0.53,0,1.29,0.21,2.3,0.63c1.01,0.42,1.99,0.97,2.96,1.67
				c0.96,0.7,1.58,1.46,1.84,2.3c-0.79,1.11-1.67,2.71-2.63,4.8c-0.97,2.09-1.89,4.41-2.76,6.96c-0.88,2.55-1.6,5.04-2.17,7.45
				c-0.57,2.42-0.86,4.5-0.86,6.26c0,1.39,0.26,2.6,0.79,3.62c0.53,1.02,1.53,1.53,3.03,1.53c1.93,0,3.93-0.84,5.99-2.51
				c2.06-1.67,4.08-3.8,6.05-6.4c1.97-2.6,3.75-5.24,5.33-7.93c0.17-0.65,0.35-1.67,0.53-3.06c0.17-1.39,0.48-2.83,0.92-4.31
				c0.44-1.58,1.21-3.01,2.3-4.32c1.1-1.3,2.65-1.95,4.67-1.95c0.7,0,1.36,0.05,1.97,0.14c0.61,0.09,1.36,0.23,2.24,0.42
				c0,1.39-0.46,4.11-1.38,8.14s-2.13,8.7-3.62,13.99c-1.49,5.29-3.16,10.58-5,15.87c3.68-1.58,7.52-4.2,11.51-7.86
				c3.99-3.67,7.21-8.89,9.67-15.66l2.24,1.95c-1.32,4.64-3.31,8.68-5.99,12.11c-2.68,3.43-5.68,6.36-9.01,8.77
				c-3.33,2.41-6.71,4.41-10.13,5.99c-2.37,6.03-4.93,11.6-7.7,16.7c-2.76,5.1-5.68,9.16-8.75,12.18
				C930.93,635.52,927.64,637.03,924.13,637.03z M922.82,631.88c1.67,0,3.99-1.86,6.97-5.57c2.98-3.71,6.01-9.28,9.08-16.7
				c-2.81,1.48-5.64,3.22-8.49,5.22c-2.85,1.99-5.24,4.11-7.17,6.33c-1.93,2.23-2.9,4.5-2.9,6.82c0,0.93,0.2,1.81,0.59,2.65
				C921.3,631.46,921.94,631.88,922.82,631.88z"/>
		</g>
	</g>
</g>
<g id="Layer_2" class="st0">
	<polygon class="st3" points="570.3,396.98 570.3,396.99 568.81,414.01 568.81,414.02 552.74,421.67 538,409.97 539.67,392.99 
		539.67,392.98 555.51,385.24 	"/>
	<ellipse class="st3" cx="391.14" cy="300.1" rx="72.85" ry="77.06"/>
	<g class="st4">
		<line class="st5" x1="603.43" y1="461.93" x2="602.21" y2="460.96"/>
		<line class="st5" x1="570.71" y1="397.31" x2="570.3" y2="396.99"/>
		<line class="st5" x1="505.6" y1="345.61" x2="503.31" y2="343.79"/>
		<polyline class="st5" points="478.23,423.03 480.34,422 483.12,420.64 		"/>
		<polyline class="st5" points="531.08,480.2 531.15,479.5 531.45,476.39 		"/>
		<polyline class="st5" points="629.91,384.91 628.1,385.77 625.33,387.09 		"/>
		<polyline class="st5" points="576.21,329.7 576.47,326.77 576.78,323.22 		"/>
		<path class="st6" d="M628.1,385.77c-5.92-28.08-25.84-50.61-51.63-59c-7.08-2.31-14.6-3.55-22.4-3.55
			c-41.89,0-75.84,35.82-75.84,80c0,6.47,0.73,12.76,2.11,18.78c6.21,27.28,25.68,49.11,50.81,57.5c7.23,2.42,14.93,3.72,22.92,3.72
			c41.89,0,75.84-35.81,75.84-80C629.91,397.23,629.29,391.39,628.1,385.77z M602.21,460.96c-12.84,11.97-29.69,19.23-48.14,19.23
			c-7.9,0-15.5-1.33-22.62-3.8c-24.03-8.28-42.56-29.43-48.33-55.75c-1.25-5.62-1.9-11.49-1.9-17.51c0-22.87,9.42-43.41,24.38-57.52
			c12.87-12.15,29.86-19.54,48.47-19.54c7.72,0,15.16,1.27,22.14,3.63c24.71,8.32,43.69,30.21,49.12,57.39
			c1.04,5.17,1.59,10.54,1.59,16.04C626.92,426.17,617.36,446.85,602.21,460.96z M539.67,392.98v0.01L538,409.97l14.74,11.7
			l16.07-7.65v-0.01l1.49-17.02v-0.01l-14.79-11.74L539.67,392.98z"/>
		<path class="st7" d="M548.39,383.33l-15.84,7.74v0.01L476,418.73c-1.25-5.62-1.9-11.49-1.9-17.51c0-22.87,9.42-43.41,24.38-57.52
			L548.39,383.33z"/>
		<path class="st7" d="M574.31,322.29l-5.91,67.28l-14.79-11.74l-49.91-39.63c12.87-12.15,29.86-19.54,48.47-19.54
			C559.89,318.66,567.32,319.92,574.31,322.29z"/>
		<path class="st7" d="M631.69,383.46l-56.52,26.92l1.49-17.02v-0.01l5.91-67.28C607.28,334.39,626.26,356.28,631.69,383.46z"/>
		<path class="st7" d="M634.08,405.61c0,23.04-9.56,43.72-24.71,57.83l-49.47-39.29l16.07-7.65v-0.01l56.52-26.92
			C633.53,394.74,634.08,400.11,634.08,405.61z"/>
		<path class="st7" d="M604.21,468.12c-12.84,11.97-29.69,19.23-48.14,19.23c-7.9,0-15.5-1.33-22.62-3.8l6.55-66.42l14.74,11.7
			L604.21,468.12z"/>
		<path class="st7" d="M533.78,397.31l-8.22,83.4c-24.03-8.28-42.56-29.43-48.33-55.75L533.78,397.31z"/>
	</g>
</g>
<g id="Layer_7">
	<g>
		<path class="st2" d="M548.89,385.52l-14.21,6.94v0.01l-50.71,24.8c-1.12-5.04-1.7-10.3-1.7-15.7c0-20.51,8.45-38.93,21.86-51.58
			L548.89,385.52z"/>
		<path class="st2" d="M572.13,330.78l-5.3,60.34l-13.26-10.53l-44.76-35.54c11.54-10.9,26.78-17.52,43.47-17.52
			C559.2,327.52,565.87,328.66,572.13,330.78z"/>
		<path class="st2" d="M622.7,385.64l-50.69,24.14l1.34-15.26v-0.01l5.3-60.34C600.81,341.63,617.83,361.26,622.7,385.64z"/>
		<path class="st2" d="M625.74,405.5c0,20.66-8.57,39.21-22.16,51.86l-44.36-35.23l14.41-6.86v-0.01l50.69-24.14
			C625.25,395.75,625.74,400.56,625.74,405.5z"/>
		<path class="st2" d="M598.95,461.56c-11.51,10.73-26.63,17.25-43.17,17.25c-7.08,0-13.9-1.19-20.29-3.41l5.87-59.56l13.22,10.49
			L598.95,461.56z"/>
		<path class="st2" d="M536.69,398.95l-7.37,74.79c-21.55-7.43-38.17-26.39-43.34-50L536.69,398.95z"/>
	</g>
</g>
<g id="Layer_3">
	<path class="st8" d="M344.97,474.95"/>
	<g>
		<g>
			<g>
				<g>
					<g>
						<path class="st2" d="M352.95,574.54c-0.09,1.7,1.16,1.08,1.39,1.33C354.02,573.03,352.62,574.61,352.95,574.54z"/>
						<polygon class="st2" points="349.82,546.51 350.33,547 349.04,542.88 						"/>
						<path class="st2" d="M349.67,520.26c-2.13,2.49,0.4,9.51-0.33,14.19l-0.48,0.77l1.74,2.1
							C350.28,531.64,349.09,524.27,349.67,520.26z"/>
						<path class="st2" d="M354.24,506.25c-0.83,0.87-0.73-3.02-0.25,3.26c0.09-0.32,0.14-0.41,0.21-0.59
							C354.18,508.35,354.18,507.58,354.24,506.25z"/>
						<path class="st2" d="M354.2,508.92C354.27,511.68,354.89,507.11,354.2,508.92L354.2,508.92z"/>
						<path class="st2" d="M353.67,496.16l0.76,3.64c0.49-0.76,0.59-4,0.95-2.8C354.96,493.26,354.47,494.03,353.67,496.16z"/>
						<path class="st2" d="M352.1,492.71l0.32,1.89C352.62,494.27,352.69,493.77,352.1,492.71z"/>
						<path class="st2" d="M353.09,498.6l-0.68-4c-0.34,0.53-1.04,0.59,0.24,1.84C352.03,496.11,352.64,496.9,353.09,498.6z"/>
						<path class="st2" d="M352.78,500.86c-0.46,2.04-0.74,4.68-1.5,1.03C351.6,508.86,353.1,507.83,352.78,500.86z"/>
						<path class="st2" d="M347.44,518.93l-0.61,2.73l0.73,2.36C347.2,522.85,348.11,518.76,347.44,518.93z"/>
						<path class="st2" d="M354.72,473.48c-0.46-0.23-1.21,1.23-1.79,1.5l0.53,2.69C353.76,476.28,354.05,473.66,354.72,473.48z"/>
						<path class="st2" d="M352.93,474.98l-0.79-4.02C352.05,474.55,352.42,475.2,352.93,474.98z"/>
						<polygon class="st2" points="349.72,492.07 351.38,498.68 349.69,490.8 						"/>
						<polygon class="st2" points="354.75,458.11 355.81,460.39 354.21,456.32 						"/>
						<path class="st2" d="M354.55,447.91c0.88,1.69,1.48-2.32,2.01-0.53c-0.16-2.77-0.91-5.13-1.59-7.26
							C355.36,442.37,355.26,444.79,354.55,447.91z"/>
						<path class="st2" d="M353.99,436.54c0.21,1.13,0.59,2.3,0.99,3.58C354.77,438.91,354.48,437.73,353.99,436.54z"/>
						<path class="st2" d="M352.35,464.1c0.27-0.31,0.99-0.91,1.3-3.17l-1.28,1.58C352.36,462.99,352.36,463.54,352.35,464.1z"/>
						<path class="st2" d="M352.33,462.57l0.04-0.06c0.03-1.72,0.06-2.91,0.07-3.42C352.42,459.53,352.39,460.58,352.33,462.57z"/>
						<path class="st2" d="M352.35,464.5c0-0.15,0-0.25,0.01-0.4C352.22,464.25,352.18,464.34,352.35,464.5z"/>
						<path class="st2" d="M350.85,481.52c-0.72-2.36-1.5-7.29-2.58-2.52C349.15,480.69,349.76,477.96,350.85,481.52z"/>
						<path class="st2" d="M350.75,466.46l-0.29,4.28c0.34-0.08,0.83-0.86,1.19,0.31L350.75,466.46z"/>
						<polygon class="st2" points="350.34,464.37 350.75,466.46 350.85,464.88 						"/>
						<path class="st2" d="M352.8,443.86c-0.56-1.85-0.61-3.87-0.7-6.15c-0.25,2.45-0.38,4.98-0.38,7.38
							C352.12,445.43,352.85,446.48,352.8,443.86z"/>
						<path class="st2" d="M352.46,452.95c-0.02-0.13-0.05-0.29-0.07-0.41C352.27,452.8,352.24,453,352.46,452.95z"/>
						<path class="st2" d="M352.07,415.24c-0.08,0.12-0.15,0.23-0.23,0.36c0.08,0.03,0.15,0.05,0.22,0.08L352.07,415.24z"/>
						<path class="st2" d="M351.48,445.5c-0.25,1.84,0.07,2.94,0.47,3.98c-0.13-1.37-0.22-2.83-0.23-4.39
							C351.54,444.94,351.42,444.91,351.48,445.5z"/>
						<path class="st2" d="M353.38,430.27c-0.27,0.96-0.49,2.04-0.7,3.19C353.09,432.52,353.72,430.61,353.38,430.27z"/>
						<path class="st2" d="M352.74,451.92c0.02,0.09,0.04,0.18,0.06,0.28C353.07,451.59,352.93,451.67,352.74,451.92z"/>
						<path class="st2" d="M352.74,451.92c-0.19-0.95-0.5-1.69-0.79-2.44c0.1,1.12,0.24,2.16,0.43,3.06
							C352.47,452.31,352.61,452.09,352.74,451.92z"/>
						<path class="st2" d="M343.83,408.45c1.19,0.32,2.3,5.15,1.03,9.33c0.9,4.11,4.8,1.41,6.98-2.17c-0.52-0.13-1-0.13-1.71-4.35
							c-0.65,1.48-1.5,9.38-2.58,5.82c-0.62-5.6,0.41-4.59,1.04-7.31c-1.48,2.32-2.17-7.12-4.34-5.89l0.78,4.91
							C344.68,408.86,344.14,407.08,343.83,408.45z"/>
						<path class="st2" d="M351.73,423.66l0.15,1.74c0.21-1.98,0.68-3.4,1.6-6.02c-0.58-2.89-1.03-3.49-1.42-3.69l-0.15,8.56
							L351.73,423.66z"/>
						<path class="st2" d="M351.9,433.2c-1.3-1.36-1.85-5.53-3.25-2.97c0.1,5.1,1.08,3.57,1.65,6.62c-0.33-8.23,0.72,2.36,1.45-3.59
							c0.22,1.62,0.29,3.07,0.35,4.45c0.15-1.48,0.35-2.91,0.58-4.26c-0.03,0.07-0.05,0.13-0.08,0.19l0,0.04
							c-0.01,0-0.01-0.01-0.02-0.01c-0.16,0.36-0.26,0.47-0.17,0.07c-0.02-0.03-0.02-0.13-0.03-0.17
							C352.21,433.52,352.06,433.37,351.9,433.2c0.27-2.39,0.34-0.38,0.5,0.37c0.06,0.03,0.12,0.09,0.19,0.1
							c0.01-0.01,0.01-0.02,0.02-0.03l-0.72-8.25C351.71,427.14,351.74,429.33,351.9,433.2z"/>
						<path class="st2" d="M345.48,474.61c0.11-0.26,0.21-0.24,0.3-0.26C345.62,473.81,345.51,473.61,345.48,474.61z"/>
						<path class="st2" d="M346.25,471.21c0.18,0.6,0.7,1.1,0.57,3.05c-0.39,1.69-0.62-0.01-1.04,0.08
							c0.34,1.17,0.93,4.11,1.56,0.42l-0.18-0.58c0.44-3.32,2.04-7.59,2.22-7.01C348.21,468.14,347.39,469,346.25,471.21z"/>
						<path class="st2" d="M348.74,451.97l-0.64-6.87l-1.11,3.5l0.67-0.18C347.4,452.33,348.22,451.48,348.74,451.97z"/>
						<polygon class="st2" points="352.72,414.46 354.08,415.36 352.15,411.4 						"/>
						<polygon class="st2" points="352.54,405.53 353.72,405.85 353,403.5 						"/>
						<path class="st2" d="M578.5,253.73l2.01-0.35C579.57,253.49,578.95,253.61,578.5,253.73z"/>
						<path class="st2" d="M570.74,253.71l-0.71,0.59C570.63,253.98,570.93,253.74,570.74,253.71z"/>
						<path class="st2" d="M407.46,269.58c2.9,1.22,6.15,3.04,5.83,1.7l-0.86-1.33C410.36,270.11,408.79,269.91,407.46,269.58z"/>
						<path class="st2" d="M477.7,226.33c-0.37-0.08-0.75-0.17-1.14-0.25c-0.46,0.51-0.81,0.97-1.05,1.4
							C476.1,227.13,476.84,226.74,477.7,226.33z"/>
						<path class="st2" d="M477.59,220.97l5.78,0.24C482.13,221.04,480.29,220.95,477.59,220.97z"/>
						<path class="st2" d="M658.38,252.29l2.36-1.31C657.06,250.96,658.68,251.64,658.38,252.29z"/>
						<path class="st2" d="M351.57,314.04c0.48-2.55,0.67-4.57,0.71-6.35C351.57,310.77,350.48,313.25,351.57,314.04z"/>
						<path class="st2" d="M571.55,267.6c1.98-0.25,2.79-0.52,2.74-0.81C572.37,267.02,571.2,267.28,571.55,267.6z"/>
						<path class="st2" d="M352.2,300.36c-0.13,0.45-0.19,0.89-0.29,1.35c0.24,1.85,0.44,3.72,0.38,5.99
							C352.82,305.43,353.13,302.84,352.2,300.36z"/>
						<path class="st2" d="M765.75,382.16c-0.06,0.21-0.09,0.46-0.16,0.66C765.77,382.88,765.78,382.59,765.75,382.16z"/>
						<path class="st2" d="M752.49,466.48c-0.08-0.83-0.08-2.19-0.1-3.46C752.3,463.64,752.31,464.69,752.49,466.48z"/>
						<path class="st2" d="M353,369.59C353.09,371.49,353.15,369.89,353,369.59L353,369.59z"/>
						<path class="st2" d="M347.89,378.82c-0.15-0.4-0.33-0.71-0.64-0.75C347.57,378.22,347.77,378.49,347.89,378.82z"/>
						<path class="st2" d="M343.83,281.61c0-0.06,0-0.1,0-0.16C343.59,282.01,343.64,281.92,343.83,281.61z"/>
						<path class="st2" d="M352.42,372.44c0.16-0.71,0.29-1.53,0.38-2.42C352.7,370.41,352.58,371.15,352.42,372.44z"/>
						<path class="st2" d="M353.03,372.06c-0.05,0.65-0.08,1.17-0.12,1.66C353.13,373.95,353.27,373.74,353.03,372.06z"/>
						<path class="st2" d="M352.92,366.95c0.02,1.08-0.03,2.09-0.12,3.07c0.09-0.37,0.16-0.53,0.2-0.43
							C352.98,369.04,352.96,368.25,352.92,366.95z"/>
						<path class="st2" d="M738.91,257.73c0.14,0.01,0.3,0,0.46,0.02C741.28,256.81,740.42,257.06,738.91,257.73z"/>
						<path class="st2" d="M456.99,257.12c-0.09,0.01-0.13,0.05-0.21,0.06c0.09,0.01,0.2,0.03,0.28,0.05L456.99,257.12z"/>
						<path class="st2" d="M463.74,256.13c-2.86,1.64-4.5,1.45-6.68,1.1l2.24,3.75L463.74,256.13z"/>
						<path class="st2" d="M613.43,253.07l-4.78-1.13c5.69-1.99,10.01-1.28,5.41-2.95c-0.64,4.07-18.51,0.57-19.15,4.64l-3.15-0.83
							c0.9,0.03,1.04-0.21,1.93-0.18c-6.12-1.9-4.52,2.98-12.4,2.47c-2.75-0.29-4.66-0.87-2.79-1.36l-3.06,0.53
							c-0.64,0.09-0.69,0.17-0.97,0.26l-0.75,0.26c-0.84-0.07-0.36-0.78,0.33-0.71l-4.18,0.36l0.15-0.12
							c-0.15,0.08-0.32,0.16-0.51,0.26c-0.17,0.07-0.24,0-0.37-0.01c-0.24-0.05-0.5-0.14-0.74-0.27c-0.44-0.26-0.88-0.69-1.07-1.02
							c0.67-1.69,0.44,0.45,1-0.23c-0.34-0.7-0.62-1.55-0.81-2.53c0.64-0.71,1.12-0.38,1.42,0.12c0.31,0.53,0.47,1.26,0.4,2.09
							c1.09-1.2,1.58-1.63,1.74-1.93c0.17-0.29-0.02-0.42-0.22-0.66c-0.21-0.23-0.45-0.59-0.42-1.17c0-0.07,0.01-0.14,0.02-0.22
							c0.02-0.1,0.04-0.21,0.06-0.32c0.09-0.43,0.19-0.89,0.33-1.38c0.13-0.5,0.29-1.07,0.48-1.66c0.1-0.3,0.2-0.61,0.31-0.93
							c0.11-0.34,0.22-0.69,0.33-1.06c-0.02,0.97-0.08,1.85-0.13,2.74l-0.17,2.55c0.71-0.7,1.23-1.43,1.65-2.38
							c0.21-0.46,0.39-0.95,0.57-1.46c0.16-0.55,0.3-1.13,0.44-1.73c0.07-0.3,0.14-0.61,0.21-0.92c0.05-0.34,0.11-0.69,0.17-1.04
							c0.1-0.72,0.24-1.43,0.33-2.25c0.08-0.9,0.17-1.84,0.26-2.81c0.01-1.23-0.01-2.53-0.06-3.91c-0.08,0.66-0.1,2.44-0.39,4.27
							c-0.18,0.92-0.38,1.58-0.6,2.35c-0.21,0.75-0.52,1.37-0.79,1.97c-0.54,1.2-1.13,1.96-1.57,2.08
							c-0.22,0.06-0.41-0.05-0.55-0.37c-0.13-0.31-0.23-0.86-0.31-1.72c0.11-0.47,0.21-0.98,0.29-1.53
							c0.05-0.58,0.06-1.22,0.04-1.93c0-0.76-0.14-1.71-0.37-2.71c-0.11-0.5-0.25-1.01-0.41-1.52c-0.15-0.52-0.43-1.02-0.66-1.54
							c0.34-0.13,0.49-0.5,0.5-1.08c0-0.58-0.07-1.4-0.47-2.27c-0.18-0.45-0.39-0.93-0.62-1.44c-0.24-0.51-0.45-1.08-0.83-1.57
							c-0.72-1.02-1.42-2.17-2.31-3.3c0.5-0.4,1.01-0.78,1.52-1.16c-1.12-1.26-1.96-2.11-2.64-2.71c-0.05-0.03-0.07-0.1-0.14-0.09
							l-0.19,0.02c-0.12,0.02-0.24,0.03-0.35,0.05c-0.23,0.04-0.44,0.07-0.65,0.1c-0.41,0.07-0.77,0.15-1.1,0.23
							c-1.34,0.33-2.33,0.72-4.23,1.06c-0.83-0.06-1.58-0.14-2.26-0.24c-0.67-0.11-1.34-0.12-1.92-0.21
							c-0.59-0.08-1.12-0.18-1.61-0.29c-0.29-0.11-0.54-0.24-0.77-0.37c-0.9-0.54-1.39-1.21-1.91-1.83
							c-6.96-0.27,4.84,2.38-3.42,2.76c-5.82-0.73-9.94-0.04-17.05,0.91c-4.12-0.77,0.76-1.15-0.71-1.74l-3.72,1.43
							c-0.9-0.06-0.6-0.52-0.44-0.76c-3.12,0.51-0.3,1.9-5.21,2.3c-1.35,2.07-10.01-3.35-16.18-0.93c-1.51-0.54,0.73-1.18,0.26-1.92
							c-8.43,1.64-7.26,1.21-14.08,3.6c-2-0.3-3.94-0.59-6.02-0.86c2.3,0.56,1.99,1.37,0.63,2.25c-0.31,0.21-0.86,0.47-1.37,0.71
							c-0.52,0.25-1.08,0.49-1.65,0.74c-1.13,0.5-2.29,0.95-3.29,1.43c1.95,0.47,3.35,0.98,4.19,1.18c-2.15,0.52-4.06,1.13-5.75,1.7
							c-1.02-0.19-1.13-0.85-0.62-1.74c-0.36,0.21-0.67,0.41-0.88,0.58c-0.32-0.03-0.63-0.08-0.85-0.12
							c-0.51,0.72-1.16-0.01-1.85-1.62c0.1-0.31,0.37-0.61,0.69-0.93c1.4,0.2,2.73,0.44,3.94,0.69c0.6-0.67,1.3-1.37,1.79-2.01
							c0.48-0.65,0.72-1.28,0.24-1.79c-0.59,0.29-1.76,0.57-3.07,0.85c0.45-0.38,0.74-0.7,0.32-0.84c-0.46-0.14-1.36,0.4-2.63,1.05
							c-1.29-0.55-2.68-1.09-4.18-1.62c0.04,0.28,0.09,0.56,0.16,0.84l-1.48,0.07c-0.38,4-0.76,8.25-1.04,12.89
							c0.16,0.69,0.31,1.38,0.47,2.06l0.12,0.49l0.12,0.32l0.24,0.65c0.32,0.85,0.64,1.7,0.97,2.57c0.64,1.72,1.3,3.47,1.86,5.36
							c0.57,1.89,1.06,3.92,1.35,6.2c0.3,2.27,0.41,4.79,0.14,7.6c-1.1-2.99-2.44-0.98-4.24-1.45c1.22-1.26,1.27-3.39,1.06-5.81
							c-0.21-2.44-0.72-5.18-0.52-8.01c-0.23,2.94-1.11,2.27-1.41,1.53c0.56,3.32,0.99,6.6,1.17,9.91c-1.48-0.4-1.36,1.91-2.47,4.22
							c1.13-0.43,1.56,0.28,1.62,1.66l7.46-2.5c-1.06-0.72-2.51-1.39-3.91-1.68l-0.26-0.06c-0.07-0.01-0.08-0.01-0.13-0.02
							l-0.22-0.02c-0.15-0.01-0.31-0.02-0.47-0.02c-0.32-0.01-0.65,0-0.98,0.02l-0.25,0.02c-0.08,0.01-0.2,0.04-0.12-0.06
							c0.07-0.13,0.14-0.26,0.24-0.37c0.19-0.22,0.45-0.38,0.74-0.41c0.58-0.06,1.13,0.24,1.52,0.58c0.17-0.38,0.14-0.92-0.24-1.37
							c-0.19-0.21-0.49-0.41-0.89-0.34c-0.19,0.05-0.38,0.18-0.54,0.41c-0.03,0.06-0.07,0.12-0.11,0.19
							c-0.01,0.03-0.05,0.07-0.04,0.09l0.11,0c0.15,0,0.31,0.01,0.48,0.03c-0.13-0.14-0.25-0.24-0.38-0.32l-0.05-0.03
							c0-0.02,0.03-0.05,0.04-0.07l0.08-0.15c0.05-0.1,0.1-0.18,0.16-0.25c0.21-0.29,0.45-0.4,0.67-0.35
							c0.45,0.1,0.8,0.69,1.21,1.36c0.21,0.37,0.43,0.73,0.65,1.11c0.12,0.19,0.24,0.39,0.36,0.59c0.02,0.04,0.09,0.11,0.06,0.13
							l-0.13,0.06c-0.05,0.04-0.24,0.07-0.36,0.1c-1.09,0.23-2.27,0.25-3.68-0.21c1.26-0.05,1.97,0.1,2.48-0.42
							c-1.53,0.46-4.07,0.57-5.93,0.38c-1.87-0.19-3.04-0.69-2.26-1.08l1.14,0.03c-1.56-0.11-3.36-0.29-5.05-0.67l-0.02,9.7
							c1.91-0.41,4.52-0.71,6.77-0.81c1.13-0.05,2.22-0.05,3.11,0c0.89,0.04,1.6,0.18,1.8,0.14l2.14-7.71
							c-2.97,0.45-5.07,1.08-5.47,1.92c-0.09-0.33,1.06-3.09,1.56-3.61c-4.93,2.93-9.91,5.8-14.94,8.65
							c1.32-2.19-3.7-7.42,3.24-8.65c-1.99-0.31-4.44-0.68-8.65,0.05c1.35,0.32,3.36,3.19,1.5,3.38c-5.08-2.48-3.54-1.34-9.79-3.51
							c2.03,0.51-0.29,3.9-3.52,3.73c0.51-0.5-0.2-3.4,0.98-3.73l-8.1,3.2c2.02-0.56,0.42-2.85-1.34-3.85
							c0.81,0.68-6.93-0.25-9.08,0.01l3.38,0.89c-9.04-0.79-9.11,4.46-18.12,3.95c1.12-0.66,2.85-4.18-1.71-4.78
							c-2.16,1.65-9.62,7.94-17.65,8.94l-1.49-1.05l-6.16,0.87c3.92-2.44,14.84-7.46,20.75-9.36c-3.36-0.92-0.9-1.2-5.99-1.32
							c-1.76-1,2.83-1.29,4.33-1.29l-11.81-1.08c0.44,2.04-9.15,1.64-8.77,3.34l12.96-1.55c0.44,2.03-7.68,5.41-16.06,4.71
							c-2.1-0.89,1.75-3.52,1.6-4.2c-1.12,0.64-8.04,1.02-8.79,0.49l3.61-0.94c-2.33-0.47-4.27,0.13-6.31,0.57
							c-1.02,0.22-2.08,0.41-3.22,0.4c-0.57,0-1.17-0.05-1.79-0.17c-0.31-0.06-0.63-0.13-0.96-0.23c-0.17-0.05-0.33-0.1-0.5-0.15
							c-0.25-0.06-0.51-0.13-0.77-0.19c-1.43-0.12-3.69-0.85-5.86-1.42c-1.07-0.28-2.1-0.52-2.85-0.62
							c-0.19-0.02-0.36-0.04-0.51-0.04c-0.13,0.02-0.21,0.07-0.29,0.11c-0.15,0.09-0.23,0.22-0.2,0.38
							c0.33,0.09,0.61,0.17,0.96,0.34c0.37,0.19,0.72,0.4,1.05,0.62c0.67,0.44,1.26,0.94,1.78,1.47c1.04,1.06,1.77,2.25,2.27,3.41
							c0.96,2.32,1.14,4.54,0.83,5.4c-0.29-0.1-2.97-0.98-6.48-1.97h0c-0.32,0.59-0.66,1.25-0.65,1.78c0,0.13,0.06,0.24,0.17,0.25
							c0.11,0,0.22-0.14,0.28-0.29c0.12-0.31,0.14-0.65,0.13-0.93c-0.11-1.06-0.59-1.67-1.12-1.89c-0.54-0.24-1.34-0.11-2.35,0.08
							c-0.25,0.03-0.52,0.08-0.77,0.02c-0.25-0.06-0.47-0.21-0.64-0.41c-0.34-0.38-0.56-0.81-0.79-1.14
							c-0.39-0.68-0.83-0.96-1.23-0.62c0.13,0.12,0.26,0.36,0.45,0.58c0.1,0.1,0.21,0.2,0.36,0.22c0.15,0,0.32-0.05,0.49-0.15
							c0.68-0.43,1.34-1,1.66-1.26c0.19-0.64,0.1-0.95-0.02-1.19c-0.12-0.24-0.3-0.39-0.42-0.58c-0.14-0.18-0.17-0.44-0.22-0.72
							c-0.02-0.14-0.1-0.25-0.33-0.25c-0.11,0-0.27,0.04-0.45,0.12c-0.09,0.04-0.19,0.08-0.3,0.15l-0.16,0.1l-0.04,0.03l-0.02,0.01
							c-2.77-2.82-0.77-0.78-1.38-1.41l0,0l0,0.01l0,0.02l0,0.15c0.98,1.54,0.92,4.42,0.85,6.11c-0.04,0.84-0.08,1.37,0.02,1.17
							c0.09-0.18,0.32-1.12,0.8-2.94c0.29,2.97,0.15,4.26,0.01,5.81c-0.14,1.53-0.34,3.25-0.23,6.64c0.32-0.53,0.77-0.38,1.27,0.13
							c0.5,0.51,1.05,1.19,1.59,2.14c1.06,1.87,2.06,4.48,2.38,6.65c-0.52-0.25-1.19,0.74-1.49,1.21
							c-0.06,8.88-0.9,13.66-0.83,21.94c-0.49,0.77-1.04,4.77-1.94,3.08c0.37,1.19,1.08,2.27,1.16,4.82
							c-1.71,4.96-0.34-5.69-2.42-1.9c1.19,0.31,1.71,6.58,2.49,10.21c1.83-1.14,0.26-8.41-0.52-12.04
							c2.53-0.05,5.26,6.27,6.51,14.91c0.69,6.88-1.61,3-1.24,4.19c-0.33,12.92,4.52,10.98,2.75,21.72
							c-1.59,4.27-3.21,0.21-4.37,1.16c-0.65-5.6,0.98-8.61,0.88-12.41l-0.73,4.68c-0.54-1.78-0.98-5.52-0.53-7.56
							c-1.41,3.58-0.13,21.83-1.43,31.8c0.55,1.77,1.12,4.82,1.76,3.37l-0.24-3.15c1.29-2.9,1.82,5.93,2.41,1.93
							c0.93,4.23,2.39,8.97,1.67,14.93l-1.84,1.12c0.54-0.13,1.09-3.9,0.52-5.57c0.82,2.48-2.46,9.14-0.05,11.85l1.26-4.18
							c0.93,4.25,2.91,9.49,2.33,14.77c1.81-2.41-0.21-1.22,1.91-4.97c-2.64,3.26,0.07-13.51-2.69-8.28
							c2.46-3.86,1.03-6.67,3.11-11.71c-0.61,0.16-1.15,1.79-0.87-2.65c-0.18-0.2-0.41-0.67-0.54-0.97c0.02-0.14,0.03-0.18,0.04-0.3
							c-0.03,0.09-0.04,0.16-0.07,0.24c-0.09-0.19-0.11-0.21-0.02,0.09c-0.26,1.06-0.58,1.91-0.91,2.26
							c-1.4-2.2-1.39-9.24-2.12-11.63c0.28-2.63,0.7,1.1,1.34-0.34l-1.09-3.56c1.35-0.36,2.2-7,3.02-0.81l0.03-5.58
							c0.74-3.29,1.01-7.81,0.43-10.59c0.28-2.63-1.54-6.64-0.46-4.35l-0.91-8.74l0.34-0.08c0.11-8.64-2.4-17.75-0.08-27.65
							c-0.37-2.9-0.83-5.9-0.52-10.77l1.15-0.96c-0.46-3.73,1.01-11.23-0.24-12.82c0.77-1.02,1.17-2.66,1.36-4.66
							c0.02-0.25,0.04-0.5,0.06-0.76c0.02-0.15,0.04-0.11,0.05-0.17c0.03-0.08,0.05-0.15,0.05-0.23c0.02-0.15,0-0.32-0.05-0.51
							c-0.04-0.19-0.1-0.41-0.17-0.65l-0.1-0.37c-0.01-0.06-0.04-0.13-0.04-0.19c0.03-0.02,0.07-0.03,0.11-0.03
							c0.17,0,0.13,0.25,0.03,0.39c-0.04,0.07-0.12,0.17-0.19,0.11c-0.04-0.05-0.03-0.12-0.01-0.16l-1.55-1.37l0-0.58l0,0
							c0.56,0,1.04-0.09,1.63-0.24c0.32-0.08,0.64-0.17,0.98-0.26c0.19-0.05,0.38-0.1,0.58-0.15l0.32-0.08l0.17-0.04
							c0.04-0.01,0.03-0.01,0.11-0.02l0.22-0.02c-0.08-0.45-0.24-0.91-0.25-1.36c4.78-0.92,12.33,1.41,19.94,1.59
							c-0.54,0.49-2.47,0.28-3.83-0.09c8.99,3.41,19.33-1.4,27.53,1.13c2.08-0.41,3.57-0.18,5.01,0.21c-0.19,0-0.37,0.01-0.52,0.05
							c0.21,0.02,0.53,0.04,0.85,0.05c0.9,0.26,1.83,0.57,2.84,0.82c-0.85-0.36-1.67-0.66-2.39-0.81c1.6,0.03,4.02-0.04,6.4-0.3
							l0.96,1.48c0.19-0.01,0.35,0,0.55-0.02c2.31,0.61,1.89-0.62,0.69-1.75c1.2-0.2,2.3-0.44,3.16-0.77
							c1.82,2.39,6.24-0.59,8.75,1.96c1.63-1.15,11.97-0.63,13.27-3.17c0.08,0.33,0.77,0.5-0.51,0.5c2.64,0.35,5.28,0.66,7.66-0.02
							l1.1,1.85l5.8-2.43c3.5,1.13,4.97,1.78,1.47,3.19c8.44-2.17,6.85-0.82,14-3.04l-0.33,1.19c1.28-0.04,2.94-0.47,4.47-0.77
							l11.69-2.3l-9.82-4.43c-1.2-0.54-2.21-0.78-3-0.98c-0.8-0.21-1.43-0.41-1.85-0.72c-1.17-0.61-2.99-1.03-5.21-1.17
							c-1.11-0.07-2.33-0.08-3.63,0c-1.32,0.08-2.69,0.22-4.31,0.55l-21.33,4.31l21.32,5.22c5.11,1.25,10.46,0.83,15.12,0.91
							l1.01,0.02c0.1,0.01,0-0.03-0.03-0.05l-0.12-0.08l-0.25-0.15l-0.52-0.3c-0.71-0.39-1.5-0.75-2.35-1.07l-0.16-0.06
							c-0.03-0.01-0.05-0.03-0.08-0.02l-0.1,0.06l-0.42,0.23c-0.14,0.06-0.29,0.19-0.41,0.19l-0.38-0.03
							c-0.5-0.04-1.03-0.06-1.54-0.06c-1.03,0-2.01,0.14-2.5,0.4c-0.39,0.22-1.03,0.73,0.3,0.62c0.88,0.03,1.78,0.08,2.67,0.15
							c0.44,0.04,0.88,0.09,1.32,0.14c0.17,0.01,0.16,0.04,0.17,0.08c0,0-0.01,0.02,0,0.01l0.09-0.2c0.07-0.14,0.11-0.22,0.16-0.31
							c0.1-0.17,0.14-0.21,0.16-0.24l8.74-2.38c0.31-0.99,0.62-1.95,0.91-2.88c-1.99,1.19-1.26-0.52-0.45-2.71
							c0.81-2.19,1.63-4.9,0.29-5.3c0.89-0.83,1.51-3,2.05-0.41c-0.13-4.04,0.2-6.98,0.33-9.6c0.07-1.31,0.06-2.53-0.1-3.75
							c-0.08-0.6-0.2-1.21-0.38-1.83c-0.09-0.29-0.2-0.65-0.31-0.88c-0.11-0.14-0.25-0.29-0.39-0.45c0.41-0.17,0.72,0.05,0.99,0.21
							c0.27,0.18,0.48,0.31,0.73,0.17c-0.19-0.17-0.75-0.94-0.26-1.11c0.49-0.12,0.71,0.55,1.08,0.87c-0.1-0.96-0.79-1.85-1.77-3.02
							c-0.97-1.15-2.23-2.4-3.45-3.58c0.06-0.1,0.13-0.19,0.18-0.27c3.26,0.53,3.69,0.21,5.16-1.4c0.64,0.33,1.35,0.67,1.5,0.99
							c0.15,0.32-0.21,0.64-1.54,0.9c0.4,0,1.2-0.01,2.19-0.01c0.75-0.02,1.57-0.03,2.41-0.05c0.91-0.03,1.85-0.07,2.77-0.12
							c3.68-0.15,7.08-0.48,7.2-1.43c0.84,0.47,3.67,0.06,4.37-0.16c5.92,0.09,6.44,0.28,12.28,0.19l-1.61-0.35
							c2.35-2.26,4.87-0.42,9.6-0.57l-0.14,0.23c10.81,1.97,4.69-0.65,15.4,1.52l-0.56-1.45c1.05-3.06,9.51,2.03,15.83,0.73
							l-2.28-0.78c0.85-0.28,1.88-0.17,3,0.17c0.63,0.17,0.96,0.39,1.36,0.65c0.38,0.26,0.73,0.54,1.03,0.84
							c0.6,0.59,0.97,1.24,1.19,1.76c0.05,0.12,0.1,0.25,0.15,0.36c0.04,0.11,0.01,0.37,0.02,0.52c0.01,0.34,0.02,0.59,0.09,0.76
							c-0.05,0.47-0.55-0.01-0.91,0.03c0.2,0.93,0.21,1.29,0.38,1.38c0.16,0.08,0.44-0.11,0.75-0.37c0.62-0.49,1.49-1.47,2.28,0.09
							c-0.41,0.53-1.06,0.59-1.57,0.84c-0.52,0.24-0.86,0.57-0.87,1.2c-0.09,0.1-0.11,0.21-0.06,0.35c0.04,0.1,0.11,0.47,0.25,0.97
							c0.25,0.97,0.49,2.39,0.62,4.05c0.03,0.88,0.07,1.74,0.03,2.71l-0.03,0.72l-0.02,0.36l-0.06,0.55
							c-0.08,0.75-0.16,1.49-0.25,2.23c-0.4,2.93-0.65,5.62-1.11,8.1c0.4-1.18,0.8-2.27,1.18-2.54c0.38-0.28,0.7,0.28,0.97,2.23
							c0.09,0.76,0.13,1.6,0.14,2.52c0.04,0.92,0.09,1.91,0.11,2.97c0.07,1.06,0.13,2.24,0.23,3.39c0.93,0.22,1.88,0.45,2.82,0.68
							c0.97,0.22,1.96,0.44,2.96,0.62c0.5,0.09,1,0.18,1.5,0.25c0.51,0.06,1.11,0.02,1.65,0.01c2.21-0.07,4.31-0.34,5.93-0.97
							c0.85,0.21,1.19,0.41,1.22,0.6c0.97-0.13,2.24-0.3,3.64-0.48c1.31-0.16,2.74-0.34,4.12-0.51c2.77-0.37,5.35-0.84,6.44-1.51
							c3.39,4.94,22.52-2.6,22.49,1.98c3.74-0.13,7.38-0.16,11.07-0.24l-0.29,0.47c7.1,0.33,9.63-0.75,12.14-1.84
							c1.64,0.32,0.44,0.74,0.3,0.98c10.4,0.98,11.44,0.8,20.18-1.44l0.9,1.49c2.37-0.85,15.05,2.42,25.28,0.69
							c-0.1,0.17-0.31,0.46-1.13,0.67c11.49-1.71,27.6,4.05,31.77-1.42l7.58-1.44c-9.83-0.28,1.43-2.37-2.62-3.21
							c3.85-0.36,10,1.47,5.26,1.84l-0.75-0.26c-1.7,2.86,12.22,0.77,12.01,2.68c8.13-0.24,16.18-0.29,24.12-0.3l-5.57-5
							c-0.09,0.41-0.11,0.23-0.36,0.49c-0.26,0.22-1.02,0.66-1.88,0.9c-0.37,0.1-1.14,0.26-1.9,0.37c-0.77,0.11-1.57,0.2-2.37,0.27
							c-1.59,0.12-3.19,0.14-4.53,0c-0.66-0.07-1.26-0.18-1.66-0.29c-0.19-0.06-0.33-0.12-0.34-0.14l0-0.01l-0.19,0.38
							c-0.1,0.23-0.21,0.45-0.35,0.67c-0.15,0.24-0.22,0.39-0.35,0.57c-0.11,0.17-0.27,0.36-0.34,0.47
							c-0.09,0.12-0.21,0.25-0.32,0.36c-0.07,0.08-0.15,0.16-0.24,0.23c-0.11,0.08-0.1,0.08-0.17,0.13l-0.61,0.35
							c-0.07,0.05-0.14,0.1-0.22,0.14c-0.08,0.04-0.17,0.07-0.26,0.1c-0.09,0.03-0.21,0.04-0.2,0.05c-0.04,0.02-0.11,0.03-0.19,0.02
							c0.05,0,0.13,0.02,0.16,0.04c0.01,0.01,0.01,0.01,0.04,0.02l0.13,0.05c0.08,0.04,0.16,0.08,0.23,0.13s0.13,0.1,0.18,0.16
							c0.11,0.08,0.24,0.17,0.34,0.26c0.22,0.19,0.39,0.39,0.57,0.63c0.28,0.29,0.52,0.59,0.74,0.91c0.22,0.32,0.38,0.63,0.69,1.07
							l0.32,0.51l0,0c-0.01,0,0.01-0.01,0.06-0.02c0.09-0.03,0.11-0.06,0.24-0.1c-0.17-0.13-0.27-0.28-0.42-0.41
							c-0.14-0.14-0.31-0.27-0.4-0.41c-0.1-0.15-0.27-0.28-0.37-0.42l-0.06-0.12c-0.08-0.12-0.16-0.24-0.25-0.36
							c-0.18-0.23-0.37-0.46-0.58-0.67c0.16,0.16,0.31,0.33,0.45,0.5l0.1,0.13l0.05,0.06l0,0l0,0c-0.02,0.01,0.01-0.01,0.07-0.03
							c0.04-0.02,0.08-0.04,0.12-0.06l0.2-0.08c0.12-0.06,0.28-0.12,0.46-0.18c0.16-0.06,0.35-0.12,0.55-0.18
							c0.78-0.24,1.68-0.45,2.61-0.63c0.79,0.09,1.36,0.42,1.24,0.8c-0.09,0.39-1.01,0.8-2.7,1.24c1.02,0.34,2.51-0.26,3.89-0.97
							c1.36-0.72,2.54-1.56,2.56-1.81c4.25-0.08,3.49,0.69,2.02,1.38c-1.48,0.7-3.58,1.46-2.34,1.3c1.11-0.21,2.24-0.41,3.39-0.59
							l-0.81-0.17c2.71-1.19,2.88-2.2,8.14-2.44c0.2,0.01,0.4,0.03,0.53,0.05l-5.29-4.79c-0.38,2.67-1.23,1.33-1.28,2.55
							c-0.16-0.01-0.21,0.45-0.04,1.92c-0.02,0.58-0.04,1.19-0.08,1.55c0,0.03-0.01,0.09-0.01,0.09l0,0.01l0,0l0,0l0,0l0.11,0.01
							c0.66,0.08,1.18,0.12,1.78,0.21l0.87,0.13c2.49,0.37-3.35-0.5-2.75-0.41l0,0l0,0l0-0.01l0-0.01l0-0.02
							c0-0.03,0.01-0.07,0-0.03c-0.01,0.03-0.02,0.08-0.05,0.09c-0.11-0.1-0.11-0.27-0.15-0.41c-0.12-0.58-0.19-1.15-0.21-1.72
							c0.53,0.33,1.08,0.82,1.7,1.47c0.28-1.01,0.24-2.22,0.44-2.84c0.1-0.32,0.24-0.52,0.41-0.54c0.17-0.02,0.38,0.13,0.79,0.67
							c-0.16-0.2-0.3-0.44-0.37-0.71c-0.03-0.13-0.06-0.28-0.02-0.4c0-0.04,0.12-0.14,0.1-0.04c-0.03,0.11-0.05,0.22-0.08,0.33
							c-0.21,0.88-0.36,1.81-0.45,2.77c-0.01,0.09-0.02,0.31-0.03,0.5c-0.01,0.2-0.02,0.4-0.02,0.6c-0.01,0.4-0.02,0.81-0.03,1.22
							c-0.01,0.83-0.01,1.68-0.02,2.55c0,1.74,0.05,3.54,0.1,5.32c0.17,7.13,0.62,14,0.17,15.66c1.36,4.89,1.46,9.75,1.4,15.78
							c0.34-1.5,2.27-2.43,2.11,2.77c-4.05-1.83-1.58,9.54-4.44,13.77c1.87-3.77,0.64,14.76,3.3,8.84c-0.29,4.34-1.5,0.28-2.42,3.57
							c1.64,10.3-0.85,22.74-0.31,35.49c0.53,0.2,1.33-1.94,2.12,0.8l-2.63,6.74c0.26,2.52,3.05,2.32,1.21,6.92
							c0.44-0.65,1.11-1.62,1.28,0.07c-2.57,24.99,1.99,51.09-2.85,76.5c1.03-3.44,1.12-1.15,1.16,1.48c0.24-1.71,1.3,0.04,2.02-0.3
							l-1.98,10.64c1.98,1.94,0.16,11.41,2.06,12.52l-0.35-3.37c2.25,4.47,4.96-6.28,7.84-5.63c-2.55-5.01,3.76-13.21,0.13-21.44
							c0.59-1.81,0.92,1.55,1.59,0.58c-1.23-2.09-1.48-4.6-0.93-9.27l0.3,0.53c-0.28-13.11,0.95-18.73,1.8-33.46l-1.42,1.09
							c0.2-3.17,0.64-3.83,1-5.31c-2.15-3.64-0.14,8.89-2.51,5.58c2.91-4.19,0.08-22.32,3.37-25.16c0.02-4.87-1.65,1.43-1.63-3.44
							l0.89-1.29l-1.15-1.23c0.19-3.19,1.3-4.81,2.05-4.93c-0.09,0.78,0.21,2.2,0.28,3.03c1.05-4.14-0.37-11.68-0.03-13.11
							l-0.54,4.68c-0.84-13.3,0.24-29.55-1.69-42.4l-0.66,0.98c-1.36-9.8,0.66-7.87-0.07-18.64l0.17,0.39
							c-0.7-2.15-1.09-5.02-1.06-7.97c0.83,2.71,1.44-5.15,2.37-1.59c-1.54-10.63-1.15-5.25-3.79-12.23l1.08-1.65
							c-1.05-2.37-1.59-2.56-2.02-7.93c1.07,4.39,1.6-3.48,3,1.43c1.06-5.68,0.36-9.86-0.24-13.28c-0.29-1.71-0.54-3.23-0.51-4.65
							c0.02-0.73,0.11-1.35,0.29-2.12c0.18-0.98,0.46-1.98,0.87-3.07c-1.66-3.56-1.95,0.54-1.97,3.76c-0.04,2.73,0.24,5.74-0.14,4.3
							c-0.46,1.23-1.07,0.18-1.54-1.62c-0.23-0.9-0.43-1.99-0.56-3.08c-0.13-1.26-0.2-2.51-0.16-3.56
							c-0.01-0.53,0.04-1.06,0.14-1.61l0.08-0.42l0.04-0.22c0-0.05-0.04-0.03-0.05-0.02c-0.07,0.07-0.05,0.28-0.01,0.48
							c0.21,0.85,0.74,1.91,1.29,3.36c0.28,0.73,0.57,1.56,0.87,2.52c0.14,0.48,0.29,0.99,0.44,1.52c0.07,0.27,0.15,0.54,0.22,0.82
							l0.12,0.42l0.06,0.21l0.03,0.1c0.04,0.04-0.09,0.05-0.13,0.07l-0.09,0.03c-0.02,0.01,0,0.03,0,0.05
							c0.01,0.03,0.01,0.06,0.02,0.09c0.01,0.07,0.05,0.1,0.09,0.01c0.06-0.06,0.01-0.14,0.15-0.19l0.22-0.07
							c0.04-0.04-0.04-0.13-0.06-0.19c-0.03-0.07-0.08-0.14-0.09-0.2l0.04-0.16l0.06-0.3c0.03-0.16,0.07-0.33,0.1-0.5
							c0.11-0.61,0.19-1.12,0.25-1.65c0.11-1.06,0.15-2.15,0.12-3.33c0.01,0.94,0.24,1,0.24,1.96c0.3-1.45,0.16-2.82-0.05-4.23
							l-1.01-6.83l-5.47,0.97c-2.03,0.36-4.3,0.88-6.95,0.37c-2.21,2.07-5.66,0.55-6.03,3.02c2.85-0.62,5.67-1.1,8.49-1.52
							c-2.39,0.51-4.64,1.59-7.28,2.57c-1.32,0.49-2.73,0.96-4.33,1.37c-0.8,0.21-1.65,0.4-2.57,0.61c-0.92,0.2-1.91,0.41-3.08,0.77
							c0.24-0.39,0.97-1,1.83-1.54c0.86-0.54,1.85-1.06,2.66-1.42c-1.29-0.06-2.47,0.36-3.72,0.93c-0.64,0.3-1.28,0.61-2.06,1.04
							l-0.6,0.33c-0.22,0.13-0.46,0.3-0.69,0.45c-0.12,0.09-0.22,0.14-0.37,0.26l-0.42,0.36l-0.42,0.38
							c-0.14,0.14-0.32,0.37-0.46,0.57c-0.06-0.19,0-0.54,0.11-0.87c0.1-0.3,0.29-0.66,0.57-1.05c0.26-0.36,0.52-0.64,0.9-0.99
							c0.32-0.29,0.66-0.55,1.06-0.82c1.46-0.95,3.14-1.52,4.86-1.98c3.44-0.91,7.17-1.36,9.72-2.56c-1.33-0.36-3.8,0.38-5.66,0.93
							c-1.85,0.55-3.14,0.88-1.97-0.68c-0.86,1-1.9,1.62-3.14,2.11c-0.32,0.13-0.64,0.25-0.98,0.36c-0.36,0.12-0.72,0.25-1.09,0.38
							c-0.8,0.3-1.61,0.54-2.73,1.15l-0.41,0.22c-0.14,0.08-0.32,0.21-0.48,0.31l-0.49,0.35l-0.24,0.18l-0.3,0.27
							c-0.2,0.19-0.4,0.38-0.59,0.59l-0.28,0.31c-0.1,0.13-0.22,0.3-0.33,0.45c-0.43,0.66-0.8,1.24-1.08,2.28
							c-0.13,0.48-0.23,0.97-0.27,1.45c-0.02,0.48-0.01,0.99,0.05,1.48c0.03,0.25,0.07,0.49,0.12,0.73
							c0.05,0.25,0.11,0.39,0.17,0.59c0.12,0.37,0.27,0.74,0.44,1.1c0.08,0.17,0.18,0.37,0.26,0.51l0.22,0.35
							c0.15,0.23,0.31,0.46,0.48,0.68c0.33,0.4,0.7,0.8,1.06,1.12c1.48,1.3,2.93,1.84,4.18,2.12c1.26,0.27,2.38,0.26,3.43,0.09
							c-0.24,0.45-0.49,0.9-0.76,1.33c0.72,0,1.77-0.1,2.85-0.25c1.08-0.14,2.22-0.32,3.26-0.35c-1.23,0.68-2.55,1.3-4.07,1.82
							c2.74-0.46,4.97-0.52,7.28-0.49c1.15,0,2.29,0.02,3.48-0.04c1.2-0.08,2.4-0.16,4.08-0.7c1.49-0.5,2.84-1.18,4.19-2.29
							c-1.8,1.21-3.13,1.73-4.25,2.11c-0.55,0.18-1.08,0.32-1.48,0.41c-0.4,0.09-0.7,0.13-0.96,0.16c-0.52,0.05-0.85,0.04-1.06-0.02
							c-0.43-0.11-0.4-0.36-0.31-0.65c0.2-0.59,0.56-1.24-1.64-1.29c1.62-0.52,2.93-0.93,4.39-1.49c1.77-0.73,3.08-1.38,4.29-2.05
							c1.19-0.67,2.22-1.3,3.2-2.07c0.97-0.78,1.91-1.67,2.74-2.99c0.83-1.31,1.5-3.1,1.62-5.3l0.32-5.63l-8.68-1.88
							c-1.63-0.35-3.9-0.5-7.38-0.19c1.84-0.27,6.99,0.58,4.12,1.35c-2.62-0.19-6.08-0.6-7.7-1.3c-9.06,0.59,1.44,1.42-2.39,2.42
							c-3.15-1.63-4.44,0.85-8.41,1.5l-0.07-1.45c-10.38-0.67-2.68,3.08-12.04,2.16l3.91-2.08l-4.85,0.61l0.97-1.67
							c-5.27,1.31-6.93,1.01-12.12,0.61c1.22,1.01-0.65,2.63-5.25,2.72c-3.14-0.84,1.75-1.38-4.77-1.14
							c1.47-0.91,3.07-2.06,5.91-0.75c0.29-0.47,1.44-0.92,1.74-1.39c-3.38-0.95-8.48-0.16-10.84-0.14
							c0.91,0.05,1.99,0.12,2.55,0.33l-9.44,2.04c-1.49-0.54-0.31-0.98,0.86-1.41c-1.91,0.16-3.24,0.83-6.05,0.96
							c0.73-1.18,0.55-2.39,4.53-2.95l-9,1.31c-0.6-0.51-4.62-1.41-3.45-1.84c-4.99-0.7-12.26,2.24-18.88,1.29
							c-0.35,0.23-1.04,0.44-2.45,0.6c-6.23-0.3-11.74-1.78-19.14-0.21l-4.18-2.13c-5.79,0.45,5.67,2.68-3.98,3.43
							c-6.83,0.64-2.54-1.81-4.93-2.41c-3.43,1.06-9.43,3.17-15.67,1.53C609.87,252.94,611.5,253.24,613.43,253.07z M570.99,240.91
							c0.12,0.86,0.26,2.04,0.29,3.19c0.01,1.12-0.14,2.1-0.64,2.58c-0.69-0.98-0.78-1.73-0.6-2.58c0.08-0.44,0.23-0.9,0.41-1.41
							C570.63,242.19,570.83,241.62,570.99,240.91z M469.98,231.57c-0.5-1.49-0.3-3.53,0.24-5.33
							C470.35,227.96,470.31,229.66,469.98,231.57z M351.72,348.83c-0.02-0.06-0.04-0.1-0.07-0.15
							C352.19,345.59,351.98,346.69,351.72,348.83z M351.13,355.24c0.21,0.64,0.41,0.6,0.61,0.32c-0.37-0.45-0.4-1.88-0.31-3.52
							C351.05,352.5,350.79,353.33,351.13,355.24z M750.85,262.97l0.36-1.2C751.67,264.45,751.27,263.69,750.85,262.97z"/>
						<path class="st2" d="M477.45,221.61c0.66,0.17,0.91,0.42,1.14,0.67C479.23,221.96,479.19,221.69,477.45,221.61z"/>
						<path class="st2" d="M657.94,252.53c0.07,0.01,0.14,0.01,0.22,0.02c0.12-0.09,0.18-0.17,0.22-0.26L657.94,252.53z"/>
						<path class="st2" d="M339.83,256.25c-0.44,0.84-0.71,1.79-0.87,2.38c-0.18,0.61-0.08,0.31,0.06,0.23
							c-0.15-0.19-0.36-0.09-0.39-0.04c0.02-0.05,0.05-0.11,0.08-0.19c0.07-0.18,0.15-0.39,0.24-0.63
							C339.14,257.48,339.44,256.84,339.83,256.25z"/>
						<path class="st2" d="M353.72,389.2l-0.39-4.1c0.08,1.99-0.24,2.7-0.46,3.7C353.21,388.7,353.69,387.91,353.72,389.2z"/>
						<path class="st2" d="M344.83,424.83c0.18,0.6,0.02,1.27,0.2,1.86l0.67-0.16C345.66,423.98,345.12,422.19,344.83,424.83z"/>
						<path class="st2" d="M348.92,393.01c-1.22,0.33-0.8,2.9-0.56,5.78c0-0.17-0.02-0.34,0-0.51
							C350.06,399.12,349.49,396.06,348.92,393.01z"/>
						<path class="st2" d="M348.4,399.45c0.06,0.89,0.09,1.79,0.04,2.66C349.12,402.44,348.58,401.03,348.4,399.45z"/>
						<path class="st2" d="M351.98,363.37c-0.31,1.36,1.56,0.85,1.07,1.62C354.6,366.51,351.13,355.91,351.98,363.37z"/>
						<polygon class="st2" points="344.92,395.35 346.42,394.31 345.2,392.7 						"/>
						<path class="st2" d="M345.95,372.65l-0.4,4.59c0.25-0.07,0.4,0.51,0.52,1.23C346.11,375.64,346.39,372.54,345.95,372.65z"/>
						<path class="st2" d="M346.07,378.47c-0.03,1.47,0.01,2.88,0.26,3.7C346.31,381.37,346.26,379.65,346.07,378.47z"/>
						<polygon class="st2" points="344.45,389.07 344.76,387.71 344.86,384.47 						"/>
						<path class="st2" d="M345.93,323.28l-0.47-5.01c-0.52-0.51-0.82,0.86-0.6,2.73C345.23,322.19,345.44,324.05,345.93,323.28z"/>
						<path class="st2" d="M341.94,338.46c0.3-1.36,0.64-1.45,1.12-2.22l-1.86-0.14L341.94,338.46z"/>
						<path class="st2" d="M341.39,323.86c-0.52-0.49-1.54-7.26-1.37-0.91C340.53,323.45,341,328.47,341.39,323.86z"/>
						<path class="st2" d="M345.28,259.03l-1.29,0.02l2.82,2.96c-0.33-0.53-0.64-1.05-0.92-1.58c-0.14-0.26-0.28-0.53-0.4-0.78
							L345.28,259.03z"/>
						<path class="st2" d="M412.56,254.18c-5.89-0.94-1.47,1.84-6.79,0.73c-1.42,0.67,4.35,0.91,2.9,1.48
							C412.27,255.75,414.13,256.24,412.56,254.18z"/>
						<path class="st2" d="M408.67,256.38c-0.58,0.1-1.19,0.22-1.84,0.4C407.87,256.63,408.37,256.5,408.67,256.38z"/>
						<polygon class="st2" points="750.86,480.49 750.24,484.32 751.26,481.85 						"/>
						<path class="st2" d="M753.15,487.82l-1.94,0.91l1.77,2.29C752.88,490.16,752.71,488.48,753.15,487.82z"/>
						<path class="st2" d="M571.31,223.61l-0.66-0.14c0.13,0.57,0.27,1.26,0.59,2.14c0.16,0.44,0.35,0.93,0.59,1.49
							c0.12,0.28,0.25,0.58,0.38,0.9c0.11,0.33,0.19,0.7,0.3,1.09c-0.06-0.45-0.04-0.95-0.16-1.38l-0.32-1.34
							C571.79,225.47,571.58,224.53,571.31,223.61z"/>
						<polygon class="st2" points="583.3,251.78 582.41,251.75 584.08,253.5 						"/>
						<path class="st2" d="M626.86,249.34c-1.78-0.08-3.85,0.3-5.68,0.22C625.12,249.25,627.32,251.54,626.86,249.34z"/>
					</g>
				</g>
			</g>
		</g>
	</g>
</g>
<g id="Layer_5">
	<g>
		<path class="st9" d="M480.91,375.15c-1.07,0.16,1.16-0.01,0.08,0.11c-0.8,0.09-1.58,0.23-2.37,0.36
			c-1.08,0.32-2.32,0.27-3.45,0.43c-1.3,0.18-2.59,0.35-3.86,0.62c-0.98,0.31-2.06,0.26-3.05,0.54c-1.11,0.32,1.03,0.25-0.05,0.62
			c0.05,0.14,0.05,0.28-0.02,0.44c-8.79,19.55-18.88,38.45-25.84,56.38c-7.13,18.35-14.89,36.74-21.06,55.02
			c-6.18,18.29-12.32,37.13-18.4,56.52c-6.09,19.4-12.61,40.27-19.55,62.62c-0.86,2.96-1.83,6.21-2.91,9.74
			c-1.09,3.53-1.53,6.52-1.33,8.97c0.39,4.88,3.68,8.67,9.89,11.38c5.97,2.6,12.21,3.73,18.71,3.4c0.45-0.02,10.9-38.93,16.53-61.4
			c5.64-22.53,11.6-45.41,17.86-68.65c0.01-0.03,0.03-0.06,0.05-0.09c0.01-0.08,0.05-0.14,0.11-0.2c0.01-0.03,0.01-0.06,0.03-0.1
			c0.05-0.08,0.06-0.15,0.1-0.23c0.02-0.41,0.1-0.82,0.24-1.22c-0.01-0.02-0.03-0.04-0.03-0.06c-0.05-0.31,0.07-0.6,0.2-0.88
			c0-0.01,0.01-0.01,0.01-0.02c0.04-0.16,0.09-0.31,0.14-0.47c0.01-0.18,0.02-0.36,0.09-0.53c0.02-0.05,0.06-0.09,0.09-0.14
			c-0.04-0.07-0.07-0.15-0.04-0.22c0.27-0.7,0.35-1.43,0.51-2.15c-0.02-0.04-0.05-0.07-0.05-0.11c-0.01-0.1,0.04-0.24,0.14-0.31
			c0.01-0.01,0.01-0.01,0.02-0.02c0-0.02,0.01-0.03,0.01-0.05c0-0.01,0.02-0.02,0.02-0.04c-0.01-0.06-0.02-0.13,0-0.2
			C450.38,480.54,481.94,374.99,480.91,375.15z"/>
		<path class="st9" d="M598.71,302.07c-11.96-1.6-24.02-1.16-36.21,1.3c-12.19,2.47-23.7,6.45-34.54,11.93
			c-10.85,5.49-20.25,11.73-28.23,18.74c-7.61,6.68-14.16,13.95-19.65,21.79c-5.49,7.84-8.94,15.46-12.56,23.01
			c-3.52,7.33-6.43,13.8-8.73,19.43c-0.14,0.34-1.06,0.77-0.67,0.94c1.1,0.5,2.67,0.74,4.72,0.74c2.5,0,4.91-0.28,7.24-0.81
			c2.33-0.54,1.65-0.97,2.38-1.61c1.09-0.95,3.23-3.71,4.22-8.11c0.99-4.4,3.8-10.01,6.23-16.68c2.28-6.28,5.88-12.73,10.78-19.37
			c0.01-0.02,0.03-0.03,0.04-0.04c0.41-1.03,1.21-1.87,1.86-2.81c0.29-0.43,0.58-0.82,0.98-1.21c0.18-0.17,0.37-0.34,0.55-0.52
			c0.01-0.05,0.02-0.09,0.06-0.14c0.09-0.12,0.2-0.23,0.29-0.35c0.01-0.02,0.02-0.03,0.03-0.05c0.04-0.11,0.12-0.2,0.23-0.26
			c0.62-0.75,1.27-1.48,1.97-2.19c0.39-0.4,0.77-0.78,1.2-1.16c0.2-0.17,0.39-0.35,0.57-0.53c0.02-0.06,0.05-0.12,0.11-0.18
			c0.1-0.1,0.18-0.2,0.27-0.3c0.05-0.07,0.1-0.15,0.14-0.22c0.06-0.12,0.16-0.19,0.27-0.22c0.38-0.43,0.75-0.86,1.17-1.27
			c0.63-0.62,1.33-1.2,1.93-1.84c0.59-0.64,1.21-1.23,1.88-1.82c0.57-0.5,1.5-0.95,1.86-1.56c0.03-0.05,0.07-0.08,0.1-0.11
			c0.02-0.16,0.07-0.31,0.22-0.44c8.42-7.3,18.09-13.02,29-17.15c11.09-4.19,22.63-5.83,34.6-4.92
			c11.98,0.91,31.39,3.08,43.07,10.97c9.25,6.25,15.75,13.49,19.59,21.29c-0.58-1.18,5.33,7.7,6.38,17.24
			c2.22,20.13,0.69,23.79-0.8,31.14c-0.72,3.57-1.85,6.51-3.34,13.18c-1.51,6.75-4.73,14.52-7.61,20.83
			c-5.38,11.76-7.23,14.79-8.43,16.87c-4.6,7.95-12.46,15-12.21,15.27c0.43,0.46-0.15-0.09,0.3,0.36c0.2,0.2,3.6-1.62,3.6-1.62
			c2.9-2.54,9.68-9.99,16.78-17.48c5.54-5.85,6.65-7.99,11.5-16.91c6.1-11.21,8.74-16.32,12.01-26.15c3.34-10.06,4.62-18.79,6-28.56
			c1.37-9.77-0.91-21.23-4.85-30.37c-3.94-9.14-11.53-17.51-22.78-25.11C621.84,307.98,610.67,303.68,598.71,302.07z"/>
	</g>
</g>
</svg>
